<svg width="350" height="353" viewBox="0 0 350 353" fill="none" xmlns="http://www.w3.org/2000/svg">
<path d="M176.026 325.295C271.719 325.295 349.293 320.243 349.293 314.01C349.293 307.777 271.719 302.724 176.026 302.724C80.3334 302.724 2.75902 307.777 2.75902 314.01C2.75902 320.243 80.3334 325.295 176.026 325.295Z" fill="#E1E9F0"/>
<path d="M259.403 96.448C274.366 96.448 286.496 84.3179 286.496 69.3546C286.496 54.3913 274.366 42.2612 259.403 42.2612C244.44 42.2612 232.31 54.3913 232.31 69.3546C232.31 84.3179 244.44 96.448 259.403 96.448Z" fill="#C9E5F6"/>
<path d="M134.122 218.44C169.492 218.44 198.165 189.767 198.165 154.397C198.165 119.027 169.492 90.3544 134.122 90.3544C98.7521 90.3544 70.0792 119.027 70.0792 154.397C70.0792 189.767 98.7521 218.44 134.122 218.44Z" fill="#C9E5F6"/>
<path d="M84.6307 292.665H78.3798V313.168H53.5637V292.665H2.11868C3.24385 287.872 4.70239 282.976 6.49432 277.975C8.28625 272.974 10.3074 268.036 12.5577 263.16C14.8497 258.285 17.3292 253.513 19.9963 248.846C22.6633 244.178 25.4554 239.782 28.3725 235.656H45.6875C42.1037 241.616 39.1032 247.325 36.6862 252.784C34.3109 258.243 32.3939 263.098 30.9354 267.348C29.2268 272.308 27.8933 276.933 26.9348 281.226H53.5637V223.155H78.3798V281.226H84.6307V292.665Z" fill="#003362"/>
<path d="M85.5013 167.722H146.948C148.995 167.722 150.931 168.526 152.215 169.909L160.89 179.254C161.746 180.176 163.037 180.712 164.401 180.712H260.323C263.721 180.712 266.475 183.101 266.475 186.05V302.493C266.475 308.853 260.533 314.01 253.203 314.01H88.5321C83.3995 314.01 79.238 310.399 79.238 305.945V173.157C79.2389 170.155 82.0422 167.722 85.5013 167.722Z" fill="#094F90"/>
<path d="M318.596 295.976H312.345V316.479H287.529V295.976H236.084C237.209 291.183 238.668 286.287 240.46 281.286C242.252 276.285 244.273 271.347 246.523 266.471C248.815 261.596 251.295 256.824 253.962 252.157C256.629 247.489 259.421 243.093 262.338 238.967H279.653C276.069 244.926 273.069 250.636 270.652 256.095C268.276 261.554 266.359 266.409 264.901 270.659C263.192 275.618 261.859 280.244 260.9 284.536H287.529V226.465H312.345V284.536H318.596V295.976Z" fill="#003362"/>
<path d="M130.551 98.1785L104.699 124.03V223.095H231.425V98.1785H130.551Z" fill="#F9F9F9"/>
<path d="M130.551 124.03V98.1785L104.699 124.03H130.551Z" fill="#B9CFE6"/>
<path d="M63.9439 196.909H234.208C238.221 196.909 241.665 199.388 242.406 202.81L264.619 305.436C265.584 309.891 261.645 314.01 256.421 314.01H86.1584C82.1451 314.01 78.7016 311.53 77.9604 308.108L55.7469 205.482C54.7825 201.027 58.7208 196.909 63.9439 196.909Z" fill="#C9E5F6"/>
<path d="M173.232 151.23C176.471 147.947 179.705 144.657 182.94 141.366C184.845 139.429 185.017 135.936 182.94 134.029C180.884 132.141 177.636 131.962 175.603 134.029C172.321 137.256 169.041 140.481 165.765 143.712C162.523 140.469 159.269 137.24 155.976 134.047C154.062 132.072 150.452 131.98 148.556 134.047C146.608 136.168 146.513 139.361 148.556 141.467C151.74 144.751 154.962 147.997 158.196 151.23C154.964 154.462 151.744 157.705 148.561 160.989C146.587 162.903 146.494 166.513 148.561 168.409C150.682 170.357 153.875 170.452 155.981 168.409C159.272 165.218 162.526 161.989 165.765 158.748C169.039 161.977 172.318 165.201 175.598 168.427C177.535 170.332 181.028 170.503 182.935 168.427C184.823 166.37 185.002 163.122 182.935 161.09C179.702 157.801 176.471 154.513 173.232 151.23Z" fill="#D43F46"/>
<path d="M68.6852 106.58H67.5752C67.4029 106.048 67.1891 105.535 66.9375 105.044L67.7234 104.258C68.4671 103.515 68.4671 102.31 67.7234 101.566L65.8491 99.6909C65.1054 98.948 63.9007 98.948 63.1578 99.6909L62.3719 100.477C61.8807 100.226 61.368 100.011 60.8363 99.8391V98.7292C60.8363 97.6778 59.984 96.8255 58.9326 96.8255H56.281C55.2296 96.8255 54.3774 97.6778 54.3774 98.7292V99.8391C53.8457 100.011 53.3329 100.225 52.8417 100.477L52.0558 99.6909C51.3129 98.948 50.1073 98.948 49.3645 99.6909L47.4893 101.566C46.7465 102.31 46.7465 103.515 47.4893 104.258L48.2752 105.044C48.0236 105.535 47.8099 106.047 47.6375 106.58H46.5276C45.4762 106.58 44.624 107.432 44.624 108.483V111.135C44.624 112.186 45.4762 113.039 46.5276 113.039H47.6375C47.8099 113.57 48.0236 114.083 48.2752 114.574L47.4893 115.36C46.7465 116.104 46.7465 117.309 47.4893 118.052L49.3645 119.927C50.1073 120.67 51.3129 120.67 52.0558 119.927L52.8417 119.141C53.3329 119.392 53.8457 119.606 54.3774 119.779V120.888C54.3774 121.94 55.2296 122.792 56.281 122.792H58.9326C59.984 122.792 60.8363 121.94 60.8363 120.888V119.779C61.368 119.606 61.8807 119.392 62.3719 119.141L63.1578 119.927C63.9015 120.67 65.1063 120.67 65.8491 119.927L67.7234 118.052C68.4671 117.308 68.4671 116.103 67.7234 115.36L66.9375 114.574C67.1883 114.083 67.4029 113.571 67.5752 113.039H68.6852C69.7365 113.039 70.5888 112.186 70.5888 111.135V108.483C70.5879 107.432 69.7356 106.58 68.6852 106.58ZM57.6064 116.469C53.9284 116.469 50.9458 113.488 50.9458 109.809C50.9458 106.131 53.9275 103.148 57.6064 103.148C61.2852 103.148 64.2669 106.13 64.2669 109.809C64.2669 113.488 61.2844 116.469 57.6064 116.469Z" fill="#094F90"/>
<path d="M284.47 151.579H283.36C283.188 151.047 282.974 150.535 282.723 150.043L283.509 149.258C284.252 148.514 284.252 147.309 283.509 146.565L281.634 144.691C280.89 143.947 279.685 143.947 278.941 144.691L278.155 145.477C277.664 145.225 277.152 145.012 276.62 144.839V143.729C276.62 142.678 275.768 141.826 274.716 141.826H272.065C271.013 141.826 270.161 142.678 270.161 143.729V144.839C269.629 145.012 269.116 145.225 268.625 145.477L267.839 144.691C267.097 143.947 265.891 143.947 265.148 144.691L263.273 146.565C262.529 147.309 262.529 148.514 263.273 149.258L264.059 150.043C263.807 150.535 263.593 151.047 263.421 151.579H262.311C261.26 151.579 260.408 152.431 260.408 153.483V156.134C260.408 157.186 261.26 158.038 262.311 158.038H263.421C263.593 158.57 263.807 159.082 264.059 159.574L263.273 160.36C262.529 161.103 262.529 162.308 263.273 163.052L265.148 164.927C265.891 165.67 267.097 165.67 267.839 164.927L268.625 164.141C269.116 164.393 269.629 164.606 270.161 164.779V165.889C270.161 166.94 271.013 167.792 272.065 167.792H274.716C275.768 167.792 276.62 166.94 276.62 165.889V164.779C277.152 164.606 277.664 164.393 278.155 164.141L278.941 164.927C279.685 165.67 280.89 165.67 281.634 164.927L283.509 163.052C284.252 162.308 284.252 161.103 283.509 160.36L282.723 159.574C282.974 159.082 283.188 158.571 283.36 158.038H284.47C285.522 158.038 286.374 157.186 286.374 156.134V153.483C286.373 152.431 285.522 151.579 284.47 151.579ZM273.392 161.468C269.714 161.468 266.731 158.486 266.731 154.807C266.731 151.128 269.713 148.147 273.392 148.147C277.071 148.147 280.052 151.128 280.052 154.807C280.052 158.486 277.07 161.468 273.392 161.468Z" fill="#C9E5F6"/>
<path d="M98.6024 86.892L97.14 86.3379C97.1788 85.5511 97.1521 84.7686 97.0668 83.9965L98.4947 83.3527C99.8451 82.7443 100.447 81.157 99.8382 79.8066L98.3034 76.4009C97.695 75.0505 96.1076 74.449 94.7573 75.0574L93.3293 75.7012C92.808 75.1255 92.2392 74.5878 91.6248 74.0948L92.1789 72.6324C92.7037 71.2476 92.0057 69.699 90.6208 69.175L87.1272 67.8522C85.7424 67.3274 84.1947 68.0255 83.6699 69.4103L83.1158 70.8727C82.329 70.8339 81.5465 70.8607 80.7744 70.946L80.1306 69.518C79.5222 68.1677 77.934 67.5661 76.5845 68.1745L73.1788 69.7093C71.8284 70.3177 71.2269 71.9051 71.8353 73.2555L72.4791 74.6834C71.9034 75.2048 71.3648 75.7735 70.8727 76.388L69.4103 75.8339C68.0255 75.3091 66.4778 76.0071 65.9529 77.3919L64.6301 80.8855C64.1053 82.2703 64.8034 83.8189 66.1882 84.3429L67.6506 84.897C67.6118 85.6838 67.6385 86.4663 67.7239 87.2384L66.2959 87.8821C64.9455 88.4905 64.344 90.0779 64.9524 91.4283L66.4872 94.834C67.0956 96.1843 68.683 96.7858 70.0334 96.1774L71.4613 95.5337C71.9827 96.1094 72.5514 96.648 73.1659 97.14L72.6118 98.6024C72.087 99.9873 72.785 101.535 74.1698 102.06L77.6634 103.383C79.0482 103.907 80.596 103.209 81.1208 101.825L81.6749 100.362C82.4617 100.401 83.2442 100.374 84.0163 100.289L84.66 101.717C85.2684 103.067 86.8558 103.669 88.2062 103.06L91.6118 101.526C92.9622 100.917 93.5637 99.3297 92.9553 97.9794L92.3116 96.5514C92.8873 96.0301 93.4258 95.4613 93.9179 94.8469L95.3803 95.401C96.7652 95.9258 98.3129 95.2278 98.8377 93.8429L100.161 90.3494C100.684 88.9645 99.9873 87.4159 98.6024 86.892ZM79.0707 94.3927C74.2241 92.5572 71.7836 87.1402 73.6192 82.2936C75.4547 77.4471 80.8717 75.0066 85.7183 76.8421C90.5648 78.6777 93.0053 84.0947 91.1698 88.9412C89.3342 93.7869 83.9172 96.2283 79.0707 94.3927Z" fill="#B9CFE6"/>
<path d="M114.757 22.2152L107.767 37.0383L122.774 78.832L162.053 64.7275L143.13 12.0275L114.757 22.2152Z" fill="#F9F9F9"/>
<path d="M118.673 33.1216L114.757 22.2152L107.767 37.0383L118.673 33.1216Z" fill="#B9CFE6"/>
<path d="M136.936 44.0013C137.906 41.9064 138.873 39.8097 139.84 37.7131C140.41 36.4782 139.899 34.8038 138.599 34.2574C137.312 33.7162 135.751 34.1807 135.143 35.4983C134.144 37.5735 133.143 39.6477 132.147 41.7237C130.072 40.7447 127.993 39.7735 125.901 38.8265C124.665 38.2206 122.95 38.7877 122.406 40.082C121.847 41.4109 122.343 42.931 123.661 43.5773C125.717 44.5856 127.783 45.5697 129.854 46.5452C128.878 48.6143 127.91 50.6869 126.966 52.7715C126.36 54.0072 126.927 55.723 128.221 56.2668C129.55 56.8252 131.07 56.3297 131.716 55.012C132.727 52.9516 133.713 50.8808 134.691 48.8065C136.779 49.7743 138.87 50.7377 140.96 51.702C142.195 52.2716 143.87 51.7615 144.416 50.4611C144.957 49.1727 144.493 47.613 143.175 47.0054C141.095 46.0023 139.016 45.0001 136.936 44.0013Z" fill="#094F90"/>
<path d="M196.219 0L183.135 5.34205L168.3 40.6466L201.481 54.589L220.187 10.0714L196.219 0Z" fill="#F9F9F9"/>
<path d="M192.348 9.21308L196.219 0L183.135 5.34205L192.348 9.21308Z" fill="#B9CFE6"/>
<path d="M197.609 26.7748C199.447 26.0096 201.283 25.2418 203.121 24.4731C204.202 24.0207 204.855 22.6591 204.348 21.5534C203.845 20.4581 202.583 19.8437 201.428 20.3263C199.583 21.0614 197.738 21.7965 195.895 22.5341C195.147 20.702 194.393 18.8725 193.616 17.0516C193.185 15.946 191.764 15.3057 190.663 15.8107C189.533 16.3295 188.962 17.5842 189.422 18.7639C190.14 20.6029 190.879 22.4333 191.626 24.2602C189.799 25.0056 187.975 25.758 186.159 26.5318C185.054 26.9636 184.414 28.3846 184.919 29.4842C185.437 30.614 186.692 31.1853 187.871 30.7251C189.714 30.0056 191.548 29.2645 193.379 28.5165C194.142 30.3486 194.908 32.1798 195.673 34.0119C196.126 35.0934 197.487 35.7466 198.593 35.239C199.688 34.7366 200.303 33.4742 199.82 32.3194C199.084 30.4709 198.348 28.6216 197.609 26.7748Z" fill="#094F90"/>
<path d="M190.21 260.766C190.21 264.749 189.758 268.355 188.852 271.584C187.947 274.783 186.695 277.649 185.095 280.184C183.526 282.689 181.685 284.862 179.573 286.703C177.461 288.543 175.197 290.067 172.783 291.274C170.369 292.451 167.864 293.326 165.269 293.9C162.674 294.473 160.109 294.76 157.574 294.76C155.009 294.76 152.429 294.443 149.834 293.809C147.238 293.206 144.749 292.285 142.365 291.048C139.981 289.781 137.748 288.211 135.666 286.34C133.614 284.469 131.818 282.282 130.279 279.777C128.77 277.242 127.578 274.39 126.703 271.222C125.828 268.053 125.39 264.568 125.39 260.766C125.39 256.752 125.828 253.131 126.703 249.902C127.608 246.673 128.831 243.791 130.37 241.256C131.909 238.721 133.719 236.549 135.801 234.738C137.884 232.897 140.117 231.388 142.501 230.212C144.885 229.035 147.359 228.16 149.924 227.586C152.489 227.013 155.039 226.726 157.574 226.726C160.29 226.726 162.991 227.013 165.677 227.586C168.362 228.16 170.912 229.035 173.326 230.212C175.74 231.388 177.974 232.897 180.026 234.738C182.108 236.549 183.888 238.721 185.367 241.256C186.876 243.791 188.053 246.673 188.898 249.902C189.773 253.131 190.21 256.752 190.21 260.766ZM172.376 260.766C172.376 258.774 172.27 256.737 172.059 254.655C171.878 252.573 171.561 250.551 171.108 248.589C170.686 246.628 170.097 244.787 169.343 243.067C168.619 241.347 167.698 239.853 166.582 238.586C165.495 237.288 164.198 236.277 162.689 235.553C161.21 234.798 159.505 234.421 157.574 234.421C155.794 234.421 154.194 234.798 152.776 235.553C151.388 236.277 150.151 237.273 149.064 238.54C148.008 239.808 147.103 241.302 146.348 243.022C145.624 244.742 145.02 246.582 144.538 248.544C144.085 250.475 143.753 252.497 143.542 254.609C143.331 256.692 143.225 258.744 143.225 260.766C143.225 262.757 143.331 264.794 143.542 266.876C143.753 268.959 144.085 270.98 144.538 272.942C145.02 274.873 145.624 276.699 146.348 278.419C147.103 280.139 148.008 281.648 149.064 282.946C150.151 284.213 151.388 285.224 152.776 285.978C154.194 286.733 155.794 287.11 157.574 287.11C159.264 287.11 160.803 286.733 162.191 285.978C163.609 285.194 164.862 284.153 165.948 282.855C167.065 281.527 168.015 280.003 168.8 278.283C169.615 276.533 170.278 274.692 170.791 272.761C171.335 270.799 171.727 268.793 171.968 266.741C172.24 264.689 172.376 262.697 172.376 260.766Z" fill="#094F90"/>
</svg>
