<svg width="30" height="30" viewBox="0 0 30 30" fill="none" xmlns="http://www.w3.org/2000/svg">
<rect x="3" y="3" width="24" height="24" rx="12" fill="#DC292F"/>
<g clip-path="url(#clip0_15589_22761)">
<path d="M12.5334 8.38061L12.3334 8.77783H9.66671C9.17505 8.77783 8.77783 9.17505 8.77783 9.66671C8.77783 10.1584 9.17505 10.5556 9.66671 10.5556H20.3333C20.8249 10.5556 21.2222 10.1584 21.2222 9.66671C21.2222 9.17505 20.8249 8.77783 20.3333 8.77783H17.6666L17.4666 8.38061C17.3166 8.07784 17.0083 7.88895 16.6722 7.88895H13.3278C12.9917 7.88895 12.6834 8.07784 12.5334 8.38061ZM20.3333 11.4445H9.66671L10.2556 20.8611C10.3 21.5638 10.8834 22.111 11.5861 22.111H18.4139C19.1166 22.111 19.7 21.5638 19.7444 20.8611L20.3333 11.4445Z" fill="white"/>
</g>
<defs>
<clipPath id="clip0_15589_22761">
<rect width="12.4443" height="14.2221" fill="white" transform="translate(8.77783 7.88895)"/>
</clipPath>
</defs>
</svg>
