<svg width="44" height="42" viewBox="0 0 44 42" fill="none" xmlns="http://www.w3.org/2000/svg">
<path d="M43 21C43 32.3108 33.6091 41.5 22 41.5C10.3909 41.5 1 32.3108 1 21C1 9.68919 10.3909 0.5 22 0.5C33.6091 0.5 43 9.68919 43 21Z" fill="white" stroke="#FFEAD0"/>
<path d="M22 39C26.7739 39 31.3523 37.1036 34.7279 33.7279C38.1036 30.3523 40 25.7739 40 21C40 16.2261 38.1036 11.6477 34.7279 8.27208C31.3523 4.89642 26.7739 3 22 3C17.2261 3 12.6477 4.89642 9.27208 8.27208C5.89642 11.6477 4 16.2261 4 21C4 25.7739 5.89642 30.3523 9.27208 33.7279C12.6477 37.1036 17.2261 39 22 39ZM22 12C22.9352 12 23.6875 12.7523 23.6875 13.6875V21.5625C23.6875 22.4977 22.9352 23.25 22 23.25C21.0648 23.25 20.3125 22.4977 20.3125 21.5625V13.6875C20.3125 12.7523 21.0648 12 22 12ZM19.75 27.75C19.75 27.1533 19.9871 26.581 20.409 26.159C20.831 25.7371 21.4033 25.5 22 25.5C22.5967 25.5 23.169 25.7371 23.591 26.159C24.0129 26.581 24.25 27.1533 24.25 27.75C24.25 28.3467 24.0129 28.919 23.591 29.341C23.169 29.7629 22.5967 30 22 30C21.4033 30 20.831 29.7629 20.409 29.341C19.9871 28.919 19.75 28.3467 19.75 27.75Z" fill="#F69B42"/>
</svg>
