<svg width="22" height="23" viewBox="0 0 22 23" fill="none" xmlns="http://www.w3.org/2000/svg">
<path d="M7.33301 5.55396C6.95717 5.55396 6.64551 5.24229 6.64551 4.86646V2.11646C6.64551 1.74062 6.95717 1.42896 7.33301 1.42896C7.70884 1.42896 8.02051 1.74062 8.02051 2.11646V4.86646C8.02051 5.24229 7.70884 5.55396 7.33301 5.55396Z" fill="#819AA7"/>
<path d="M14.667 5.55396C14.2912 5.55396 13.9795 5.24229 13.9795 4.86646V2.11646C13.9795 1.74062 14.2912 1.42896 14.667 1.42896C15.0428 1.42896 15.3545 1.74062 15.3545 2.11646V4.86646C15.3545 5.24229 15.0428 5.55396 14.667 5.55396Z" fill="#819AA7"/>
<path d="M7.79167 13.5747C7.6725 13.5747 7.55333 13.5472 7.44333 13.5014C7.32417 13.4556 7.2325 13.3914 7.14083 13.3089C6.97583 13.1347 6.875 12.9055 6.875 12.658C6.875 12.5389 6.9025 12.4197 6.94834 12.3097C6.99417 12.1997 7.05833 12.0989 7.14083 12.0072C7.2325 11.9247 7.32417 11.8605 7.44333 11.8147C7.77333 11.6772 8.18583 11.7505 8.4425 12.0072C8.6075 12.1814 8.70833 12.4197 8.70833 12.658C8.70833 12.713 8.69917 12.7772 8.69 12.8414C8.68083 12.8964 8.6625 12.9514 8.635 13.0064C8.61667 13.0614 8.58917 13.1164 8.5525 13.1714C8.525 13.2172 8.47917 13.263 8.4425 13.3089C8.26833 13.4739 8.03 13.5747 7.79167 13.5747Z" fill="#819AA7"/>
<path d="M10.9997 13.5748C10.8805 13.5748 10.7613 13.5473 10.6513 13.5014C10.5322 13.4556 10.4405 13.3914 10.3488 13.3089C10.1838 13.1347 10.083 12.9056 10.083 12.6581C10.083 12.5389 10.1105 12.4197 10.1563 12.3097C10.2022 12.1997 10.2663 12.0989 10.3488 12.0073C10.4405 11.9248 10.5322 11.8606 10.6513 11.8147C10.9813 11.6681 11.3938 11.7506 11.6505 12.0073C11.8155 12.1814 11.9163 12.4198 11.9163 12.6581C11.9163 12.7131 11.9072 12.7773 11.898 12.8414C11.8888 12.8964 11.8705 12.9514 11.843 13.0064C11.8247 13.0614 11.7972 13.1164 11.7605 13.1714C11.733 13.2173 11.6872 13.2631 11.6505 13.3089C11.4763 13.4739 11.238 13.5748 10.9997 13.5748Z" fill="#819AA7"/>
<path d="M14.2087 13.5748C14.0895 13.5748 13.9703 13.5473 13.8603 13.5014C13.7412 13.4556 13.6495 13.3914 13.5578 13.3089C13.5212 13.2631 13.4845 13.2173 13.4478 13.1714C13.4112 13.1164 13.3837 13.0614 13.3653 13.0064C13.3378 12.9514 13.3195 12.8964 13.3103 12.8414C13.3012 12.7773 13.292 12.7131 13.292 12.6581C13.292 12.4198 13.3928 12.1814 13.5578 12.0073C13.6495 11.9248 13.7412 11.8606 13.8603 11.8147C14.1995 11.6681 14.6028 11.7506 14.8595 12.0073C15.0245 12.1814 15.1253 12.4198 15.1253 12.6581C15.1253 12.7131 15.1162 12.7773 15.107 12.8414C15.0978 12.8964 15.0795 12.9514 15.052 13.0064C15.0337 13.0614 15.0062 13.1164 14.9695 13.1714C14.942 13.2173 14.8962 13.2631 14.8595 13.3089C14.6853 13.4739 14.447 13.5748 14.2087 13.5748Z" fill="#819AA7"/>
<path d="M7.79167 16.783C7.6725 16.783 7.55333 16.7556 7.44333 16.7097C7.33333 16.6639 7.2325 16.5997 7.14083 16.5172C6.97583 16.343 6.875 16.1047 6.875 15.8664C6.875 15.7472 6.9025 15.628 6.94834 15.518C6.99417 15.3989 7.05833 15.2981 7.14083 15.2156C7.48 14.8764 8.10333 14.8764 8.4425 15.2156C8.6075 15.3897 8.70833 15.628 8.70833 15.8664C8.70833 16.1047 8.6075 16.343 8.4425 16.5172C8.26833 16.6822 8.03 16.783 7.79167 16.783Z" fill="#819AA7"/>
<path d="M10.9997 16.783C10.7613 16.783 10.523 16.6822 10.3488 16.5172C10.1838 16.343 10.083 16.1047 10.083 15.8664C10.083 15.7472 10.1105 15.628 10.1563 15.518C10.2022 15.3989 10.2663 15.2981 10.3488 15.2156C10.688 14.8764 11.3113 14.8764 11.6505 15.2156C11.733 15.2981 11.7972 15.3989 11.843 15.518C11.8888 15.628 11.9163 15.7472 11.9163 15.8664C11.9163 16.1047 11.8155 16.343 11.6505 16.5172C11.4763 16.6822 11.238 16.783 10.9997 16.783Z" fill="#819AA7"/>
<path d="M14.2087 16.7831C13.9703 16.7831 13.732 16.6823 13.5578 16.5173C13.4753 16.4348 13.4112 16.334 13.3653 16.2148C13.3195 16.1048 13.292 15.9856 13.292 15.8665C13.292 15.7473 13.3195 15.6281 13.3653 15.5181C13.4112 15.399 13.4753 15.2981 13.5578 15.2156C13.7687 15.0048 14.0895 14.9039 14.3828 14.9681C14.447 14.9773 14.502 14.9956 14.557 15.0231C14.612 15.0414 14.667 15.069 14.722 15.1056C14.7678 15.1331 14.8137 15.179 14.8595 15.2156C15.0245 15.3898 15.1253 15.6281 15.1253 15.8665C15.1253 16.1048 15.0245 16.3431 14.8595 16.5173C14.6853 16.6823 14.447 16.7831 14.2087 16.7831Z" fill="#819AA7"/>
<path d="M18.7913 9.3031H3.20801C2.83217 9.3031 2.52051 8.99143 2.52051 8.6156C2.52051 8.23977 2.83217 7.9281 3.20801 7.9281H18.7913C19.1672 7.9281 19.4788 8.23977 19.4788 8.6156C19.4788 8.99143 19.1672 9.3031 18.7913 9.3031Z" fill="#819AA7"/>
<path d="M14.6667 21.1373H7.33333C3.9875 21.1373 2.0625 19.2123 2.0625 15.8665V8.07479C2.0625 4.72896 3.9875 2.80396 7.33333 2.80396H14.6667C18.0125 2.80396 19.9375 4.72896 19.9375 8.07479V15.8665C19.9375 19.2123 18.0125 21.1373 14.6667 21.1373ZM7.33333 4.17896C4.71167 4.17896 3.4375 5.45312 3.4375 8.07479V15.8665C3.4375 18.4881 4.71167 19.7623 7.33333 19.7623H14.6667C17.2883 19.7623 18.5625 18.4881 18.5625 15.8665V8.07479C18.5625 5.45312 17.2883 4.17896 14.6667 4.17896H7.33333Z" fill="#819AA7"/>
</svg>
