<svg width="73" height="73" viewBox="0 0 73 73" fill="none" xmlns="http://www.w3.org/2000/svg">
<circle cx="36.5" cy="36.5" r="35" fill="#094F90" stroke="#D2ECFC" stroke-width="3"/>
<path opacity="0.4" d="M45.4684 35.0842V41.4175C45.4684 41.8292 45.4526 42.225 45.4051 42.605C45.0409 46.88 42.5234 49.0016 37.8843 49.0016H37.2509C36.8551 49.0016 36.4751 49.1917 36.2376 49.5083L34.3376 52.0417C33.4984 53.1658 32.1367 53.1658 31.2976 52.0417L29.3976 49.5083C29.1917 49.2392 28.7326 49.0016 28.3843 49.0016H27.7509C22.7001 49.0016 20.1667 47.7508 20.1667 41.4175V35.0842C20.1667 30.445 22.3043 27.9275 26.5634 27.5633C26.9434 27.5158 27.3393 27.5 27.7509 27.5H37.8843C42.9351 27.5 45.4684 30.0333 45.4684 35.0842Z" fill="#F2F7FC"/>
<path d="M32.8175 40.1667C31.9308 40.1667 31.2341 39.4542 31.2341 38.5833C31.2341 37.7125 31.9466 37 32.8175 37C33.6883 37 34.4008 37.7125 34.4008 38.5833C34.4008 39.4542 33.7041 40.1667 32.8175 40.1667Z" fill="#F2F7FC"/>
<path d="M38.3592 40.1667C37.4725 40.1667 36.7759 39.4542 36.7759 38.5833C36.7759 37.7125 37.4884 37 38.3592 37C39.23 37 39.9425 37.7125 39.9425 38.5833C39.9425 39.4542 39.23 40.1667 38.3592 40.1667Z" fill="#F2F7FC"/>
<path d="M27.2916 40.1667C26.4049 40.1667 25.7083 39.4542 25.7083 38.5833C25.7083 37.7125 26.4208 37 27.2916 37C28.1624 37 28.8749 37.7125 28.8749 38.5833C28.8749 39.4542 28.1624 40.1667 27.2916 40.1667Z" fill="#F2F7FC"/>
<path d="M51.8016 28.7508V35.0841C51.8016 39.7391 49.6641 42.2408 45.4049 42.605C45.4524 42.225 45.4682 41.8291 45.4682 41.4175V35.0841C45.4682 30.0333 42.9349 27.5 37.8841 27.5H27.7507C27.3391 27.5 26.9432 27.5158 26.5632 27.5633C26.9274 23.3041 29.4449 21.1666 34.0841 21.1666H44.2174C49.2682 21.1666 51.8016 23.7 51.8016 28.7508Z" fill="#F2F7FC"/>
</svg>
