<svg width="24" height="25" viewBox="0 0 24 25" fill="none" xmlns="http://www.w3.org/2000/svg">
<path d="M18.29 23.0331H5.70995C2.30995 23.0331 2.12995 21.1631 1.97995 19.6531L1.57995 14.6431C1.48995 13.6731 1.76995 12.7031 2.38995 11.9231C3.12995 11.0231 4.17995 10.5331 5.30995 10.5331H18.69C19.8 10.5331 20.85 11.0231 21.5599 11.8731L21.7299 12.1031C22.27 12.8431 22.51 13.7431 22.42 14.6531L22.02 19.6431C21.87 21.1631 21.69 23.0331 18.29 23.0331ZM5.30995 12.0331C4.63995 12.0331 3.99995 12.3331 3.57995 12.8531L3.50995 12.9231C3.18995 13.3331 3.01995 13.9131 3.07995 14.5131L3.47995 19.5231C3.61995 20.9831 3.67995 21.5331 5.70995 21.5331H18.29C20.33 21.5331 20.38 20.9831 20.52 19.5131L20.92 14.5031C20.9799 13.9131 20.8099 13.3231 20.42 12.8631L20.32 12.7431C19.8699 12.2731 19.3 12.0331 18.68 12.0331H5.30995Z" fill="#094F90"/>
<path d="M20.5 12.5031C20.09 12.5031 19.75 12.1631 19.75 11.7531V9.96311C19.75 6.98311 19.23 6.46311 16.25 6.46311H13.7C12.57 6.46311 12.18 6.06311 11.75 5.49311L10.46 3.78311C10.02 3.20311 9.92 3.06311 9.02 3.06311H7.75C4.77 3.06311 4.25 3.58311 4.25 6.56311V11.7131C4.25 12.1231 3.91 12.4631 3.5 12.4631C3.09 12.4631 2.75 12.1231 2.75 11.7131V6.56311C2.75 2.73311 3.92 1.56311 7.75 1.56311H9.03C10.57 1.56311 11.05 2.06311 11.67 2.88311L12.95 4.58311C13.22 4.94311 13.24 4.96311 13.71 4.96311H16.26C20.09 4.96311 21.26 6.13311 21.26 9.96311V11.7531C21.25 12.1631 20.91 12.5031 20.5 12.5031Z" fill="#094F90"/>
<path d="M14.5697 18.0331H9.42969C9.01969 18.0331 8.67969 17.6931 8.67969 17.2831C8.67969 16.8731 9.01969 16.5331 9.42969 16.5331H14.5697C14.9797 16.5331 15.3197 16.8731 15.3197 17.2831C15.3197 17.6931 14.9897 18.0331 14.5697 18.0331Z" fill="#094F90"/>
</svg>
