<svg width="73" height="73" viewBox="0 0 73 73" fill="none" xmlns="http://www.w3.org/2000/svg">
<circle cx="36.5" cy="36.5" r="35" fill="#094F90" stroke="#D2ECFC" stroke-width="3"/>
<path opacity="0.4" d="M47.0834 32.25C47.0834 34.5458 46.4026 36.6516 45.2309 38.4091C43.5209 40.9425 40.8134 42.7316 37.6626 43.1908C37.1242 43.2858 36.5701 43.3333 36.0001 43.3333C35.4301 43.3333 34.8759 43.2858 34.3376 43.1908C31.1867 42.7316 28.4792 40.9425 26.7692 38.4091C25.5976 36.6516 24.9167 34.5458 24.9167 32.25C24.9167 26.1225 29.8726 21.1666 36.0001 21.1666C42.1276 21.1666 47.0834 26.1225 47.0834 32.25Z" fill="#F2F7FC"/>
<path d="M50.6458 47.2442L48.0333 47.8617C47.4475 48.0042 46.9883 48.4476 46.8616 49.0334L46.3075 51.3609C46.0066 52.6276 44.3916 53.0076 43.5525 52.0101L36 43.3334L28.4475 52.0259C27.6083 53.0234 25.9933 52.6434 25.6925 51.3767L25.1383 49.0492C24.9958 48.4634 24.5366 48.0042 23.9666 47.8776L21.3541 47.2601C20.1508 46.9751 19.7233 45.4709 20.5941 44.6L26.7691 38.425C28.4791 40.9584 31.1866 42.7476 34.3375 43.2067C34.8758 43.3017 35.43 43.3492 36 43.3492C36.57 43.3492 37.1241 43.3017 37.6625 43.2067C40.8133 42.7476 43.5208 40.9584 45.2308 38.425L51.4058 44.6C52.2766 45.455 51.8491 46.9592 50.6458 47.2442Z" fill="#F2F7FC"/>
<path d="M36.9184 27.4684L37.8525 29.3367C37.9792 29.59 38.3117 29.8434 38.6125 29.8909L40.3067 30.1759C41.3834 30.35 41.6367 31.1417 40.8609 31.9175L39.5467 33.2317C39.325 33.4533 39.1984 33.8809 39.2775 34.1975L39.6575 35.8284C39.9584 37.1109 39.2775 37.6175 38.1375 36.9367L36.5542 36.0025C36.2692 35.8283 35.7942 35.8283 35.5092 36.0025L33.9259 36.9367C32.7859 37.6017 32.105 37.1109 32.4059 35.8284L32.7859 34.1975C32.8492 33.8967 32.7384 33.4533 32.5167 33.2317L31.2025 31.9175C30.4267 31.1417 30.68 30.3659 31.7567 30.1759L33.4509 29.8909C33.7359 29.8434 34.0684 29.59 34.195 29.3367L35.1292 27.4684C35.5884 26.455 36.4117 26.455 36.9184 27.4684Z" fill="#F2F7FC"/>
</svg>
