<svg width="1440" height="609" viewBox="0 0 1440 609" fill="none" xmlns="http://www.w3.org/2000/svg">
<g clip-path="url(#clip0_2_38)">
<path d="M0 0H1440V389C1440 510.503 1341.5 609 1220 609H0V0Z" fill="#E7F3FD"/>
<path d="M1207 675.5C1207 944.186 988.964 1162 720 1162C451.036 1162 233 944.186 233 675.5C233 406.814 451.036 189 720 189C988.964 189 1207 406.814 1207 675.5Z" stroke="#CFE6FC" stroke-width="2"/>
<path d="M1353 675.5C1353 1024.82 1069.6 1308 720 1308C370.403 1308 87 1024.82 87 675.5C87 326.181 370.403 43 720 43C1069.6 43 1353 326.181 1353 675.5Z" stroke="#CFE6FC" stroke-width="2"/>
<path d="M1099 675.5C1099 884.539 929.317 1054 720 1054C510.683 1054 341 884.539 341 675.5C341 466.461 510.683 297 720 297C929.317 297 1099 466.461 1099 675.5Z" stroke="#CFE6FC" stroke-width="2"/>
</g>
<defs>
<clipPath id="clip0_2_38">
<path d="M0 0H1440V389C1440 510.503 1341.5 609 1220 609H0V0Z" fill="white"/>
</clipPath>
</defs>
</svg>
