<svg width="160" height="129" viewBox="0 0 160 129" fill="none" xmlns="http://www.w3.org/2000/svg">
<path d="M101.162 22.361V34.9806H90.9156V22.361C90.9156 16.339 86.0189 11.4425 79.9968 11.4425C73.9746 11.4425 69.078 16.339 69.078 22.361V34.9806H58.8384V22.361C58.8384 16.7077 61.0376 11.3907 65.0352 7.39329C69.0327 3.39588 74.3498 1.19666 80.0032 1.19666C85.6567 1.19666 90.9738 3.39588 94.9713 7.39329C98.9688 11.3907 101.162 16.7012 101.162 22.361Z" fill="#B3B3B3"/>
<path d="M70.2811 33.784V34.9806H89.7189V33.784H70.2811ZM113.84 43.4347C113.439 41.0802 112.326 38.9133 110.599 37.1863C109.377 35.9638 107.934 35.0453 106.356 34.4761C105.612 34.2044 104.842 34.0104 104.053 33.9004C103.503 33.8228 102.947 33.784 102.384 33.784H57.6223C54.5174 33.784 51.6001 34.9935 49.4008 37.1863C47.208 39.3791 45.9984 42.3027 45.9984 45.4075V77.1798C45.9984 78.5576 46.2377 79.8965 46.6905 81.1578C47.2598 82.7361 48.1783 84.1786 49.4008 85.4011C50.384 86.3842 51.516 87.1734 52.7386 87.7361C53.6636 88.163 54.6338 88.467 55.6494 88.6352C56.2962 88.7452 56.956 88.8034 57.6223 88.8034H102.384C104.098 88.8034 105.754 88.4347 107.268 87.7361C108.49 87.1669 109.622 86.3842 110.606 85.4011C112.798 83.2083 114.008 80.2846 114.008 77.1798V45.4075C114.008 44.7413 113.95 44.0815 113.84 43.4347ZM112.811 77.1798C112.811 79.9677 111.725 82.5809 109.758 84.5537C107.792 86.5265 105.172 87.6068 102.384 87.6068H57.6223C55.2419 87.6068 52.9779 86.8111 51.1409 85.3493C50.8304 85.1035 50.5328 84.8383 50.2482 84.5537C48.2818 82.5873 47.1951 79.9677 47.1951 77.1798V45.4075C47.1951 42.6197 48.2818 40 50.2482 38.0336C52.2146 36.0608 54.8344 34.9806 57.6223 34.9806H102.384C105.172 34.9806 107.785 36.0673 109.758 38.0336C110.043 38.3183 110.308 38.6158 110.554 38.9263C112.016 40.7633 112.811 43.0272 112.811 45.4075V77.1798Z" fill="white"/>
<path d="M112.811 45.4075V77.1799C112.811 79.9677 111.725 82.5809 109.758 84.5537C107.792 86.5266 105.172 87.6068 102.384 87.6068H57.6223C54.8344 87.6068 52.2211 86.5201 50.2482 84.5537C48.2818 82.5874 47.1951 79.9677 47.1951 77.1799V45.4075C47.1951 42.6197 48.2818 40 50.2482 38.0337C52.2146 36.0608 54.8344 34.9806 57.6223 34.9806H102.384C105.172 34.9806 107.785 36.0673 109.758 38.0337C111.725 40 112.811 42.6197 112.811 45.4075Z" fill="white"/>
<path d="M55.0349 127.717C44.3037 127.717 35.5777 118.991 35.5777 108.26C35.5777 97.5291 44.3101 88.8099 55.0349 88.8099H104.965C115.696 88.8099 124.422 97.5356 124.422 108.267C124.422 118.997 115.696 127.723 104.965 127.723H55.0349V127.717Z" fill="#319626"/>
<path d="M67.4091 110.582L67.0921 110.375L66.4453 109.955L66.704 109.787L67.4091 109.327C68.3341 108.726 68.968 107.807 69.1944 106.727C69.4208 105.653 69.2203 104.547 68.6187 103.629C68.2306 103.034 67.7066 102.562 67.1051 102.238C66.5164 101.921 65.8502 101.753 65.1581 101.753C65.1387 101.753 65.1192 101.753 65.0998 101.753C64.356 101.766 63.6315 101.973 62.9911 102.367C62.9846 102.005 62.9264 101.662 62.8359 101.326C62.7259 100.931 62.5513 100.556 62.3313 100.22C61.9497 99.6378 61.4322 99.1527 60.8177 98.8228C60.242 98.5123 59.5758 98.3377 58.8772 98.3377C58.8578 98.3377 58.8319 98.3377 58.8125 98.3377C56.6003 98.37 54.8085 100.162 54.7567 102.367C54.595 102.27 54.4333 102.18 54.2651 102.109C53.7412 101.876 53.172 101.753 52.5898 101.753C52.5704 101.753 52.5445 101.753 52.5251 101.753C51.1473 101.772 49.886 102.471 49.1356 103.629C48.7087 104.289 48.4823 105.039 48.4694 105.809C48.4629 106.113 48.4952 106.423 48.5599 106.727C48.644 107.122 48.7799 107.497 48.9674 107.84C49.0839 108.053 49.2132 108.247 49.362 108.435C49.6143 108.752 49.9183 109.036 50.2676 109.276C50.2935 109.295 50.3194 109.308 50.3452 109.327L51.309 109.955L50.3452 110.582C49.155 111.358 48.4952 112.646 48.4694 113.972C48.4564 114.657 48.6181 115.349 48.9545 115.983C49.0063 116.08 49.0645 116.184 49.1292 116.281C49.8924 117.458 51.1861 118.157 52.5833 118.157C52.9714 118.157 53.3531 118.105 53.7218 117.995C54.084 117.891 54.4268 117.736 54.7503 117.536C54.7632 118.202 54.9379 118.836 55.2354 119.392C55.934 120.686 57.2989 121.565 58.8642 121.565C61.1088 121.565 62.9329 119.767 62.9846 117.536C63.638 117.937 64.3818 118.15 65.1516 118.15C66.5552 118.15 67.8425 117.452 68.6058 116.274C69.8606 114.373 69.3173 111.818 67.4091 110.582ZM53.5342 115.479C53.2431 115.666 52.9197 115.757 52.5963 115.757C52.137 115.757 51.6842 115.576 51.3543 115.233C51.2767 115.155 51.2055 115.065 51.1473 114.974C50.9662 114.696 50.8756 114.379 50.8692 114.069C50.8562 113.493 51.1344 112.924 51.6519 112.581L55.7076 109.948L53.5601 108.558L51.6454 107.316C51.2508 107.057 50.9921 106.669 50.9015 106.242C50.8045 105.809 50.8756 105.336 51.1409 104.929C51.4707 104.418 52.027 104.14 52.5898 104.14C52.9132 104.14 53.2366 104.23 53.5277 104.418L57.1501 106.772V102.458C57.1501 101.507 57.9198 100.731 58.8772 100.731C58.8901 100.731 58.903 100.731 58.916 100.731C59.3882 100.744 59.8086 100.938 60.1126 101.248C60.4167 101.559 60.6042 101.986 60.6042 102.452V106.766L64.2266 104.411C64.5177 104.224 64.8411 104.133 65.1645 104.133C65.1775 104.133 65.1904 104.133 65.2033 104.133C65.6303 104.14 66.0507 104.308 66.3677 104.618C66.4582 104.709 66.5423 104.806 66.6199 104.922C67.1374 105.725 66.911 106.792 66.1089 107.309L63.6056 108.933L62.506 109.644L62.0532 109.942L65.1645 111.966L66.1089 112.581C66.206 112.646 66.29 112.71 66.3677 112.788C66.9498 113.351 67.0727 114.263 66.6135 114.968C66.2836 115.479 65.7273 115.757 65.1645 115.757C64.8411 115.757 64.5177 115.666 64.2266 115.479L63.8579 115.239L60.6042 113.124V117.439C60.6042 118.389 59.8345 119.166 58.8772 119.166C58.392 119.166 57.9522 118.965 57.6352 118.642C57.3441 118.338 57.1565 117.93 57.1501 117.477C57.1501 117.464 57.1501 117.452 57.1501 117.439V113.131L55.4618 114.23L54.2651 115.007L53.5342 115.479Z" fill="#DDDDDD"/>
<path d="M90.217 110.582L89.9 110.375L89.2467 109.955L89.5054 109.787L90.2105 109.327C91.1355 108.726 91.7694 107.807 91.9958 106.727C92.2222 105.653 92.0217 104.547 91.4201 103.629C91.032 103.034 90.5145 102.562 89.9065 102.238C89.3178 101.921 88.6516 101.753 87.9595 101.753C87.94 101.753 87.9206 101.753 87.9012 101.753C87.1574 101.766 86.4329 101.979 85.7925 102.367C85.786 102.005 85.7343 101.662 85.6373 101.326C85.5273 100.931 85.3527 100.556 85.1327 100.22C84.7511 99.6378 84.2336 99.1527 83.6191 98.8228C83.0369 98.5123 82.3772 98.3377 81.6786 98.3377C81.6592 98.3377 81.6333 98.3377 81.6139 98.3377C79.4016 98.37 77.6099 100.162 77.5646 102.367C77.4029 102.27 77.2412 102.18 77.073 102.109C76.5491 101.876 75.9798 101.753 75.3977 101.753C75.3783 101.753 75.3524 101.753 75.333 101.753C73.9552 101.772 72.6938 102.471 71.9435 103.629C71.5036 104.301 71.2902 105.058 71.2772 105.809C71.2643 106.514 71.4389 107.219 71.7818 107.846C71.8917 108.053 72.0211 108.254 72.1699 108.435C72.4222 108.752 72.7262 109.036 73.0755 109.276C73.1013 109.295 73.1272 109.314 73.1531 109.327L74.1169 109.955L73.1531 110.582C71.9629 111.358 71.3031 112.646 71.2772 113.972C71.2643 114.657 71.426 115.349 71.7624 115.983C71.8141 116.08 71.8723 116.184 71.937 116.281C72.7003 117.458 73.994 118.157 75.3912 118.157C75.7793 118.157 76.1609 118.105 76.5296 117.995C76.8919 117.891 77.2347 117.736 77.5581 117.536C77.5711 118.202 77.7457 118.836 78.0433 119.392C78.7419 120.686 80.1067 121.565 81.6786 121.565C83.9231 121.565 85.7472 119.767 85.799 117.536C86.4523 117.937 87.1962 118.15 87.9659 118.15C89.3696 118.15 90.6568 117.452 91.4201 116.274C92.6685 114.373 92.1252 111.818 90.217 110.582ZM76.3421 115.479C76.051 115.666 75.7276 115.757 75.4041 115.757C74.9449 115.757 74.4921 115.576 74.1622 115.226C74.0846 115.149 74.0134 115.065 73.9552 114.968C73.7741 114.69 73.6835 114.373 73.677 114.062C73.6641 113.486 73.9422 112.917 74.4662 112.574L78.5219 109.942L76.3744 108.551L74.4597 107.309C74.0652 107.051 73.8064 106.662 73.7159 106.236C73.6188 105.802 73.69 105.33 73.9552 104.922C74.2851 104.411 74.8414 104.133 75.4041 104.133C75.7276 104.133 76.051 104.224 76.3421 104.411L79.9644 106.766V102.458C79.9644 101.507 80.7406 100.731 81.6915 100.731C81.7044 100.731 81.7174 100.731 81.7303 100.731C82.2025 100.744 82.623 100.938 82.927 101.248C83.231 101.559 83.4186 101.986 83.4186 102.452V106.766L87.0409 104.411C87.332 104.224 87.6554 104.133 87.9789 104.133C87.9918 104.133 88.0047 104.133 88.0177 104.133C88.4446 104.14 88.865 104.308 89.182 104.618C89.2726 104.709 89.3566 104.806 89.4278 104.922C89.9453 105.725 89.7189 106.792 88.9233 107.309L86.42 108.933L85.3203 109.644L84.8675 109.942L87.9789 111.966L88.9233 112.581C89.0203 112.646 89.1044 112.71 89.182 112.788C89.7642 113.351 89.8871 114.263 89.4278 114.968C89.0979 115.479 88.5416 115.757 87.9789 115.757C87.6554 115.757 87.332 115.666 87.0409 115.479L86.6722 115.239L83.4186 113.124V117.439C83.4186 118.389 82.6488 119.166 81.6915 119.166C81.2064 119.166 80.7665 118.965 80.4495 118.642C80.1585 118.338 79.9709 117.93 79.9644 117.477C79.9644 117.464 79.9644 117.452 79.9644 117.439V113.131L78.2761 114.224L77.0795 115L76.3421 115.479Z" fill="#DDDDDD"/>
<path d="M113.031 110.582L112.714 110.375L112.061 109.955L112.32 109.787L113.025 109.327C113.95 108.726 114.584 107.807 114.81 106.727C115.037 105.653 114.836 104.547 114.234 103.629C113.846 103.034 113.322 102.562 112.721 102.238C112.132 101.921 111.466 101.753 110.78 101.753C110.761 101.753 110.741 101.753 110.722 101.753C109.978 101.766 109.254 101.979 108.613 102.367C108.607 102.005 108.555 101.662 108.458 101.326C108.348 100.931 108.173 100.556 107.954 100.22C107.578 99.6378 107.054 99.1527 106.44 98.8228C105.858 98.5123 105.198 98.3377 104.499 98.3377C104.48 98.3377 104.454 98.3377 104.435 98.3377C102.222 98.37 100.431 100.162 100.385 102.367C100.224 102.27 100.062 102.18 99.8938 102.109C99.3699 101.876 98.8006 101.753 98.2185 101.753C98.1991 101.753 98.1732 101.753 98.1538 101.753C96.776 101.772 95.5147 102.471 94.7643 103.629C94.3374 104.289 94.111 105.039 94.0981 105.802C94.0916 106.106 94.1239 106.417 94.1886 106.727C94.2727 107.122 94.4085 107.497 94.5961 107.84C94.7126 108.053 94.8419 108.247 94.9907 108.435C95.243 108.752 95.547 109.036 95.8963 109.276C95.9222 109.295 95.948 109.308 95.9739 109.327L96.9377 109.955L95.9739 110.582C94.7837 111.358 94.1239 112.646 94.0981 113.972C94.0851 114.657 94.2468 115.349 94.5832 115.983C94.6349 116.08 94.6932 116.184 94.7578 116.281C95.5211 117.458 96.8148 118.157 98.212 118.157C98.6001 118.157 98.9818 118.105 99.3505 117.995C99.7127 117.891 100.056 117.736 100.379 117.536C100.392 118.202 100.567 118.836 100.864 119.392C101.556 120.686 102.928 121.565 104.493 121.565C106.737 121.565 108.562 119.767 108.613 117.536C109.267 117.937 110.011 118.15 110.78 118.15C112.184 118.15 113.471 117.452 114.234 116.274C115.476 114.373 114.933 111.818 113.031 110.582ZM99.1564 115.479C98.8653 115.666 98.5419 115.757 98.2185 115.757C97.7592 115.757 97.3064 115.576 96.9765 115.226C96.8989 115.149 96.8278 115.065 96.7695 114.968C96.5884 114.69 96.4979 114.373 96.4914 114.062C96.4785 113.486 96.7566 112.917 97.2741 112.574L101.33 109.942L99.1823 108.551L97.2676 107.309C96.873 107.051 96.6143 106.662 96.5237 106.236C96.4267 105.802 96.4979 105.33 96.7631 104.922C97.093 104.411 97.6493 104.133 98.212 104.133C98.5354 104.133 98.8589 104.224 99.1499 104.411L102.772 106.766V102.458C102.772 101.507 103.542 100.731 104.499 100.731C104.512 100.731 104.525 100.731 104.538 100.731C105.01 100.744 105.431 100.938 105.735 101.248C106.039 101.559 106.226 101.986 106.226 102.452V106.766L109.849 104.411C110.14 104.224 110.463 104.133 110.787 104.133C110.8 104.133 110.813 104.133 110.826 104.133C111.252 104.14 111.673 104.308 111.99 104.618C112.08 104.709 112.165 104.806 112.242 104.922C112.76 105.725 112.533 106.792 111.731 107.309L109.228 108.933L108.128 109.644L107.669 109.942L110.78 111.966L111.725 112.581C111.822 112.646 111.906 112.71 111.983 112.788C112.566 113.351 112.688 114.263 112.229 114.968C111.899 115.479 111.343 115.757 110.78 115.757C110.457 115.757 110.133 115.666 109.842 115.479L109.474 115.239L106.22 113.124V117.439C106.22 118.389 105.45 119.166 104.493 119.166C104.008 119.166 103.568 118.965 103.251 118.642C102.96 118.338 102.772 117.93 102.766 117.477C102.766 117.464 102.766 117.452 102.766 117.439V113.131L101.078 114.23L99.8809 115.007L99.1564 115.479Z" fill="#DDDDDD"/>
<path d="M79.2011 74.5537C78.1856 74.5537 77.2024 74.1268 76.5038 73.3829C75.8052 72.6391 75.4494 71.63 75.5141 70.6145L76.0251 62.9754C74.8996 62.3286 73.9487 61.423 73.2437 60.317C72.3575 58.9263 71.9306 57.3157 72.0082 55.6533C72.1958 51.5459 75.5658 48.1954 79.6733 48.0336C79.7833 48.0272 79.8868 48.0272 79.9968 48.0272C84.4083 48.0272 87.9983 51.6171 87.9983 56.0285C87.9983 58.9198 86.4394 61.5589 83.9684 62.9754L84.4794 70.6145C84.5506 71.63 84.1883 72.6391 83.4897 73.3829C82.7911 74.1268 81.8144 74.5537 80.7924 74.5537H79.2011Z" fill="#B3B3B3"/>
<path d="M57.1889 118.681C55.5782 118.681 54.2651 117.367 54.2651 115.757V113.648L52.4928 114.8C52.0206 115.11 51.4707 115.272 50.9015 115.272C49.9054 115.272 48.9868 114.774 48.45 113.939C47.5703 112.587 47.9584 110.776 49.3103 109.897L51.82 108.267L49.3103 106.637C48.657 106.21 48.2042 105.556 48.0424 104.793C47.8807 104.03 48.023 103.247 48.45 102.594C48.9933 101.759 49.9054 101.261 50.9015 101.261C51.4643 101.261 52.0141 101.423 52.4928 101.734L54.2651 102.885V100.77C54.2651 99.1592 55.5782 97.8461 57.1889 97.8461C58.7995 97.8461 60.1126 99.1592 60.1126 100.77V102.885L61.885 101.734C62.3572 101.423 62.907 101.261 63.4763 101.261C64.4724 101.261 65.3909 101.759 65.9278 102.594C66.8075 103.946 66.4194 105.757 65.0675 106.637L62.5577 108.267L65.0675 109.897C66.4194 110.776 66.8075 112.587 65.9278 113.939C65.3845 114.774 64.4724 115.272 63.4763 115.272C62.9135 115.272 62.3637 115.11 61.885 114.8L60.1126 113.648V115.763C60.1126 117.367 58.7995 118.681 57.1889 118.681Z" fill="white"/>
<path d="M80.0032 118.681C78.3926 118.681 77.0795 117.367 77.0795 115.757V113.648L75.3071 114.8C74.8349 115.11 74.2851 115.272 73.7159 115.272C72.7197 115.272 71.8012 114.774 71.2643 113.939C70.3846 112.587 70.7727 110.776 72.1246 109.897L74.6344 108.267L72.1246 106.637C70.7727 105.757 70.3846 103.946 71.2643 102.594C71.8077 101.759 72.7197 101.261 73.7159 101.261C74.2786 101.261 74.8284 101.423 75.3071 101.734L77.0795 102.885V100.77C77.0795 99.1592 78.3926 97.8461 80.0032 97.8461C81.6139 97.8461 82.927 99.1592 82.927 100.77V102.885L84.6993 101.734C85.1715 101.423 85.7214 101.261 86.2906 101.261C87.2867 101.261 88.2053 101.759 88.7421 102.594C89.6219 103.946 89.2337 105.757 87.8818 106.637L85.3721 108.267L87.8818 109.897C89.2337 110.776 89.6219 112.587 88.7421 113.939C88.1988 114.774 87.2867 115.272 86.2906 115.272C85.7278 115.272 85.178 115.11 84.6993 114.8L82.927 113.648V115.763C82.9205 117.367 81.6139 118.681 80.0032 118.681Z" fill="white"/>
<path d="M102.811 118.681C101.2 118.681 99.8873 117.367 99.8873 115.757V113.648L98.115 114.8C97.6428 115.11 97.093 115.272 96.5237 115.272C95.5276 115.272 94.6091 114.774 94.0722 113.939C93.1925 112.587 93.5806 110.776 94.9325 109.897L97.4423 108.267L94.9325 106.637C93.5806 105.757 93.1925 103.946 94.0722 102.594C94.6155 101.759 95.5276 101.261 96.5237 101.261C97.0865 101.261 97.6363 101.423 98.115 101.734L99.8873 102.885V100.77C99.8873 99.1592 101.2 97.8461 102.811 97.8461C104.422 97.8461 105.735 99.1592 105.735 100.77V102.885L107.507 101.734C107.979 101.423 108.529 101.261 109.098 101.261C110.095 101.261 111.013 101.759 111.55 102.594C112.43 103.946 112.042 105.757 110.69 106.637L108.18 108.267L110.69 109.897C112.042 110.776 112.43 112.587 111.55 113.939C111.007 114.774 110.095 115.272 109.098 115.272C108.536 115.272 107.986 115.11 107.507 114.8L105.735 113.648V115.763C105.735 117.367 104.422 118.681 102.811 118.681Z" fill="white"/>
<path d="M89.3631 14.6831C87.7848 13.3829 85.8637 12.4774 83.7679 12.1151C83.0887 11.9987 82.3966 11.934 81.685 11.934C75.0031 11.934 69.5696 17.3674 69.5696 24.0492V33.784H70.2746V32.5873H71.9629V24.0492C71.9629 18.6869 76.3227 14.3273 81.685 14.3273C83.9361 14.3273 86.0124 15.097 87.6554 16.3842C89.0397 17.4644 90.1264 18.9198 90.7668 20.5886C91.1743 21.6624 91.4007 22.8267 91.4007 24.0492V32.5873H93.794V24.0492C93.8005 20.2781 92.0734 16.9082 89.3631 14.6831ZM120.386 94.5408C117.76 92.1993 114.526 90.511 110.961 89.7542C110.936 89.7478 110.91 89.7413 110.884 89.7348L110.89 89.7284C111.304 89.4696 111.705 89.185 112.087 88.8746C112.449 88.5835 112.798 88.2665 113.135 87.9366C115.554 85.5175 116.893 82.2963 116.893 78.8681V47.0958C116.893 43.674 115.56 40.4528 113.135 38.0272C112.85 37.7426 112.559 37.4774 112.255 37.2186C110.547 35.7956 108.523 34.8577 106.356 34.4696C105.612 34.3338 104.842 34.2691 104.072 34.2691H104.053V24.0492C104.053 18.0725 101.731 12.458 97.5069 8.23416C97.2223 7.94955 96.9377 7.67788 96.6402 7.41268C93.7294 4.79302 90.2428 3.00777 86.4717 2.19276C84.9193 1.85641 83.3216 1.68176 81.6915 1.68176C75.7146 1.68176 70.1 4.00388 65.8761 8.22769C61.6521 12.458 59.33 18.0725 59.33 24.0492V34.2756H59.3106C59.1553 34.2756 58.9936 34.2756 58.8384 34.282C58.4373 34.295 58.0363 34.3273 57.6417 34.3791C54.8473 34.7413 52.2664 36.0026 50.2417 38.0272C47.8225 40.4463 46.4835 43.6675 46.4835 47.0958V78.8681C46.4835 79.6443 46.5547 80.4075 46.6841 81.1579C47.0722 83.3247 48.0101 85.3493 49.4332 87.057C49.6854 87.361 49.9571 87.6585 50.2353 87.9366C50.3 88.0013 50.3646 88.066 50.4293 88.1242C50.798 88.48 51.1861 88.8099 51.5872 89.1074C51.8783 89.3273 52.1823 89.5343 52.4863 89.7284C43.1199 91.6883 36.0628 100.007 36.0628 109.942C36.0628 111.417 36.2181 112.853 36.5156 114.237C37.2724 117.807 38.9542 121.035 41.3023 123.668C42.2338 124.715 43.2752 125.666 44.4072 126.507C45.6815 127.458 47.0657 128.26 48.5405 128.9H54.9443C54.9767 128.9 55.0025 128.9 55.0349 128.9H104.965C104.997 128.9 105.023 128.9 105.056 128.9H114.836C116.311 128.26 117.695 127.458 118.969 126.507C124.028 122.736 127.307 116.714 127.307 109.935C127.307 103.829 124.629 98.3248 120.386 94.5408ZM48.8834 47.0958C48.8834 44.3079 49.9701 41.6947 51.9365 39.7219C53.9094 37.7555 56.5226 36.6688 59.3106 36.6688H104.072C106.453 36.6688 108.717 37.4644 110.554 38.9263C110.864 39.1721 111.162 39.4373 111.447 39.7219C112.52 40.7956 113.329 42.0569 113.84 43.4347C114.273 44.5925 114.5 45.828 114.5 47.0958V78.8681C114.5 81.6559 113.413 84.2691 111.447 86.242C110.735 86.9535 109.939 87.5486 109.079 88.0207C108.393 88.3959 107.675 88.6934 106.925 88.9069C106.007 89.1656 105.049 89.3015 104.072 89.3015H59.3106C58.2174 89.3015 57.1436 89.1333 56.1345 88.8099C55.9728 88.7581 55.8111 88.6999 55.6494 88.6417C54.9637 88.383 54.3039 88.0531 53.683 87.6585C53.0555 87.2575 52.4734 86.7853 51.9365 86.2484C51.6519 85.9638 51.3867 85.6663 51.1409 85.3558C49.679 83.5188 48.8834 81.2549 48.8834 78.8746V47.0958ZM61.7233 24.0492C61.7233 18.7128 63.7997 13.6999 67.5708 9.92886C71.3419 6.15783 76.355 4.0815 81.6915 4.0815C86.627 4.0815 91.2907 5.86029 94.9454 9.10738C95.243 9.37258 95.5341 9.64425 95.8122 9.92886C98.0826 12.1992 99.7386 14.9224 100.696 17.8913C101.33 19.8512 101.66 21.9276 101.66 24.0492V34.2756H93.8005V24.0492C93.8005 20.2781 92.067 16.9082 89.3631 14.6831C87.7848 13.3829 85.8637 12.4774 83.7679 12.1151C83.0887 11.9987 82.3966 11.934 81.685 11.934C75.0031 11.934 69.5696 17.3674 69.5696 24.0492V34.2756H61.7233V24.0492ZM91.4072 24.0492V34.2756H71.9694V24.0492C71.9694 18.6869 76.3291 14.3273 81.6915 14.3273C83.9425 14.3273 86.0189 15.097 87.6619 16.3842C89.0462 17.4644 90.1329 18.9198 90.7732 20.5886C91.1872 21.6688 91.4072 22.8331 91.4072 24.0492ZM56.7232 128.208C54.7438 128.208 52.8356 127.891 51.0503 127.303C50.3646 127.076 49.7049 126.818 49.058 126.514C46.7358 125.433 44.6724 123.881 43.0035 121.973C40.1832 118.758 38.4691 114.547 38.4691 109.942C38.4691 99.8707 46.6582 91.6818 56.7296 91.6818H106.66C111.265 91.6818 115.476 93.3959 118.691 96.2226C121.123 98.3571 122.986 101.132 124.015 104.276C124.597 106.061 124.914 107.969 124.914 109.942C124.914 117.27 120.574 123.609 114.325 126.514C111.99 127.6 109.396 128.202 106.66 128.202H56.7232V128.208Z" fill="#DDDDDD"/>
<path d="M90.8832 57.7167C90.8832 55.2588 89.9259 52.9496 88.1923 51.2161C87.9077 50.9315 87.6102 50.6663 87.2932 50.4269C86.0383 49.4567 84.57 48.8357 83.0046 48.6158C82.5712 48.5511 82.1378 48.5253 81.6915 48.5253C81.5686 48.5253 81.4457 48.5253 81.3228 48.5317C79.0265 48.6223 76.8595 49.5731 75.2165 51.2031C73.5735 52.8332 72.6098 55 72.5063 57.2898C72.4804 57.8784 72.5063 58.467 72.5903 59.0427C72.7715 60.3235 73.2243 61.546 73.9293 62.6456C74.0781 62.8784 74.2398 63.1048 74.408 63.3247C74.5309 63.48 74.6538 63.6352 74.7832 63.784C75.126 64.1786 75.5076 64.5408 75.9087 64.8707C76.0963 65.0194 76.2838 65.1617 76.4844 65.2976L76.0186 72.2251C76.0057 72.3868 76.0057 72.5486 76.0122 72.7103C76.038 73.5382 76.2774 74.3532 76.7043 75.0583C76.8789 75.3558 77.0924 75.6339 77.3317 75.8927C78.2503 76.8759 79.5504 77.4451 80.9023 77.4451H82.5001C83.8455 77.4451 85.1521 76.8823 86.0707 75.8927C86.9892 74.9095 87.4679 73.5705 87.3773 72.2251L86.9116 65.2976C89.3631 63.6029 90.8832 60.7827 90.8832 57.7167ZM76.1092 61.6106C75.2812 60.4269 74.822 58.9716 74.8931 57.3998C75.0548 53.9004 77.9074 51.0608 81.4134 50.925C81.5039 50.9185 81.5945 50.9185 81.6915 50.9185C83.1404 50.9185 84.4794 51.3713 85.5855 52.141C86.614 52.859 87.4355 53.8551 87.9401 55.0259C88.2958 55.8539 88.4963 56.7659 88.4963 57.7232C88.4963 60.511 86.821 62.9043 84.4147 63.9586L84.9775 72.3933C85.0745 73.8357 83.9296 75.0583 82.4871 75.0583H80.8894C80.3331 75.0583 79.8156 74.8771 79.4017 74.5667C78.9683 74.2497 78.6513 73.7905 78.4961 73.2665C78.412 72.9949 78.3796 72.6973 78.399 72.3933L78.9618 63.9586C78.3279 63.6805 77.7457 63.3118 77.2347 62.8655C76.8143 62.4903 76.4326 62.0764 76.1092 61.6106Z" fill="#DDDDDD"/>
<path d="M80.0032 10.2458C73.3213 10.2458 67.8878 15.6792 67.8878 22.361V34.9806H69.0844H70.2811V33.784V22.361C70.2811 16.9987 74.6409 12.6391 80.0032 12.6391C85.3656 12.6391 89.7254 16.9987 89.7254 22.361V32.5873V34.9806H92.1187V33.784V22.361C92.1122 15.6792 86.6787 10.2458 80.0032 10.2458Z" fill="#333333"/>
<path d="M95.8122 6.54593C91.5947 2.32212 85.9801 0 80.0032 0C74.0263 0 68.4117 2.32212 64.1878 6.54593C59.9639 10.7697 57.6417 16.3842 57.6417 22.3609V34.9806H60.035V22.3609C60.035 17.0246 62.1114 12.0116 65.8825 8.24062C69.6537 4.4696 74.6667 2.39327 80.0032 2.39327C85.3397 2.39327 90.3528 4.4696 94.1239 8.24062C97.895 12.0116 99.9714 17.0246 99.9714 22.3609V34.9806H102.365V22.3609C102.358 16.3842 100.036 10.7697 95.8122 6.54593Z" fill="#333333"/>
<path d="M70.2811 32.5873V34.9806H89.7189V32.5873H70.2811ZM112.255 37.2251C112.003 36.9211 111.731 36.6235 111.447 36.3389C109.422 34.3144 106.841 33.053 104.047 32.6908C103.497 32.6197 102.94 32.5809 102.378 32.5809H57.6158C54.194 32.5809 50.9727 33.9133 48.547 36.3389C46.1278 38.7581 44.7953 41.9793 44.7953 45.4075V77.1798C44.7953 80.6016 46.1278 83.8228 48.547 86.2484C48.8316 86.533 49.1292 86.7982 49.4332 87.0569C49.8666 87.4192 50.3258 87.7491 50.798 88.0466C51.3543 88.3959 51.9429 88.7064 52.5445 88.9651C54.1228 89.6443 55.8434 90 57.6158 90H102.378C104.15 90 105.864 89.6443 107.449 88.9651C108.051 88.7064 108.639 88.3959 109.195 88.0466C110.004 87.5421 110.754 86.9405 111.447 86.2484C113.866 83.8293 115.198 80.608 115.198 77.1798V45.4075C115.205 42.3803 114.163 39.5213 112.255 37.2251ZM47.1951 45.4075C47.1951 42.6197 48.2818 40 50.2482 38.0336C52.2146 36.0608 54.8344 34.9806 57.6223 34.9806H102.384C105.172 34.9806 107.785 36.0673 109.758 38.0336C110.043 38.3182 110.308 38.6158 110.554 38.9263C112.016 40.7633 112.811 43.0272 112.811 45.4075V77.1798C112.811 79.9677 111.725 82.5809 109.758 84.5537C107.792 86.5265 105.172 87.6068 102.384 87.6068H57.6223C55.2419 87.6068 52.9779 86.8111 51.1409 85.3493C50.8304 85.1035 50.5328 84.8383 50.2482 84.5537C48.2818 82.5873 47.1951 79.9677 47.1951 77.1798V45.4075Z" fill="#333333"/>
<path d="M120.386 94.5408C118.148 92.0246 115.302 90.0647 112.087 88.881C111.155 88.5382 110.185 88.26 109.195 88.0531C109.157 88.0466 109.118 88.0336 109.079 88.0272C108.484 87.9043 107.876 87.8137 107.261 87.7426C106.505 87.6585 105.741 87.6132 104.965 87.6132H55.0349C54.5821 87.6132 54.1293 87.6261 53.683 87.6585C53.366 87.6779 53.0491 87.7038 52.7386 87.7426C52.0853 87.8137 51.4384 87.9172 50.8045 88.0531C50.6816 88.0789 50.5587 88.1048 50.4358 88.1307C41.2505 90.2264 34.381 98.4606 34.381 108.267C34.381 114.386 37.059 119.897 41.3088 123.68C42.5442 124.787 43.9156 125.737 45.3904 126.52C48.2494 128.034 51.4966 128.9 54.9443 128.913C54.9767 128.913 55.0025 128.913 55.0349 128.913H104.965C104.997 128.913 105.023 128.913 105.056 128.913C108.503 128.9 111.757 128.034 114.61 126.52C121.149 123.053 125.619 116.171 125.619 108.26C125.619 103.001 123.64 98.1889 120.386 94.5408ZM42.997 121.979C39.1871 118.629 36.7744 113.719 36.7744 108.26C36.7744 98.1889 44.9635 90 55.0349 90H104.965C110.431 90 115.341 92.4127 118.685 96.229C121.505 99.4437 123.219 103.655 123.219 108.26C123.219 118.286 115.095 126.455 105.075 126.52C105.036 126.52 104.997 126.52 104.959 126.52H55.0349C54.9961 126.52 54.9573 126.52 54.9185 126.52C50.3582 126.494 46.186 124.787 42.997 121.979Z" fill="#333333"/>
<path d="M89.195 56.0285C89.195 53.978 88.5287 52.0246 87.2932 50.4269C87.0539 50.11 86.7887 49.8124 86.5041 49.5278C84.764 47.7943 82.4548 46.837 80.0032 46.837C79.8803 46.837 79.7574 46.837 79.6345 46.8435C77.3382 46.934 75.1713 47.8849 73.5283 49.5149C71.8853 51.1449 70.9215 53.3053 70.818 55.6016C70.7339 57.5097 71.2255 59.3597 72.2411 60.9573C72.8232 61.8758 73.5542 62.6714 74.408 63.3247C74.5374 63.4218 74.6603 63.5188 74.7961 63.6029L74.7832 63.7775L74.3304 70.5304C74.2398 71.8758 74.7185 73.2083 75.637 74.198C75.954 74.5343 76.3097 74.8189 76.6978 75.0518C77.4482 75.4981 78.315 75.7439 79.2076 75.7439H80.8053C82.1508 75.7439 83.4574 75.1811 84.3759 74.198C85.2945 73.2148 85.7731 71.8758 85.6826 70.5304L85.2168 63.6029C87.6749 61.9146 89.195 59.0945 89.195 56.0285ZM78.4961 73.2601C77.4029 72.9366 76.6332 71.8952 76.7108 70.6986L77.2347 62.8655L77.2735 62.2704C76.8596 62.0893 76.4714 61.8694 76.1092 61.6171C74.2657 60.3299 73.0949 58.1566 73.2049 55.718C73.3666 52.2187 76.2192 49.3791 79.7251 49.2432C79.8157 49.2432 79.9062 49.2368 80.0032 49.2368C82.3125 49.2368 84.3565 50.3881 85.5855 52.1475C86.3553 53.2536 86.8081 54.5925 86.8081 56.0414C86.8081 58.8293 85.1327 61.2225 82.7329 62.2769L83.2957 70.7115C83.3927 72.154 82.2478 73.37 80.8053 73.37H79.2076C78.9553 73.3571 78.716 73.3247 78.4961 73.2601Z" fill="#333333"/>
<path d="M66.704 109.787C66.4323 109.444 66.1025 109.146 65.7208 108.894L64.7505 108.267L65.7208 107.639C66.6458 107.038 67.2797 106.119 67.5061 105.039C67.7131 104.075 67.5708 103.092 67.1051 102.238C67.0533 102.135 66.9886 102.038 66.9304 101.941C66.1671 100.763 64.8734 100.065 63.4763 100.065C63.0881 100.065 62.7065 100.116 62.3378 100.226C61.9756 100.33 61.6327 100.485 61.3093 100.686C61.2964 100.019 61.1217 99.3855 60.8242 98.8293C60.132 97.5356 58.7607 96.6494 57.1889 96.6494C54.9508 96.6494 53.1202 98.4476 53.0685 100.679C52.4151 100.272 51.6713 100.065 50.9015 100.065C49.4979 100.065 48.2106 100.763 47.4474 101.941C46.8458 102.865 46.6453 103.965 46.8717 105.039C47.0981 106.113 47.732 107.038 48.657 107.639L48.9674 107.84L49.6208 108.267L49.362 108.435L48.657 108.894C46.7488 110.129 46.2119 112.684 47.4474 114.593C47.8355 115.188 48.3594 115.66 48.961 115.983C49.5496 116.294 50.2159 116.468 50.9015 116.468C51.6713 116.468 52.4151 116.255 53.0685 115.854C53.0879 116.643 53.3272 117.38 53.7282 118.001C54.1034 118.583 54.6274 119.069 55.2419 119.398C55.8176 119.709 56.4838 119.884 57.1824 119.884C59.427 119.884 61.2511 118.085 61.3028 115.854C61.9562 116.261 62.7 116.468 63.4698 116.468C64.8734 116.468 66.1607 115.77 66.924 114.593C67.7778 113.279 67.7843 111.662 67.0857 110.375C66.9822 110.168 66.8528 109.968 66.704 109.787ZM62.5383 113.79L58.916 111.436V115.75C58.916 116.701 58.1398 117.477 57.1889 117.477C57.1759 117.477 57.163 117.477 57.1501 117.477C56.2121 117.458 55.4618 116.695 55.4618 115.75V111.436L51.8395 113.79C51.5484 113.978 51.2249 114.069 50.9015 114.069C50.8886 114.069 50.8756 114.069 50.8627 114.069C50.3129 114.056 49.776 113.778 49.4526 113.286C48.9351 112.484 49.1615 111.417 49.9571 110.899L53.5601 108.558L54.0129 108.26L50.9015 106.235L49.9571 105.621C49.155 105.104 48.9286 104.036 49.4526 103.234C49.7825 102.723 50.3388 102.452 50.9015 102.452C51.2249 102.452 51.5484 102.542 51.8395 102.73L55.4618 105.078V100.763C55.4618 99.8125 56.238 99.0363 57.1889 99.0363C58.1268 99.0363 58.8966 99.7866 58.916 100.724C58.916 100.737 58.916 100.75 58.916 100.763V105.078L60.6042 103.985L62.5383 102.73C62.8294 102.542 63.1528 102.452 63.4763 102.452C64.039 102.452 64.5953 102.73 64.9252 103.234C65.1063 103.512 65.1969 103.829 65.2033 104.14C65.2163 104.715 64.9381 105.285 64.4207 105.621L60.3649 108.254L62.5124 109.644L64.4271 110.886C64.8217 111.145 65.0804 111.533 65.171 111.96C65.268 112.393 65.1969 112.865 64.9317 113.273C64.6018 113.784 64.0455 114.056 63.4827 114.056C63.1528 114.069 62.8294 113.985 62.5383 113.79Z" fill="#333333"/>
<path d="M89.5119 109.787C89.2402 109.444 88.9103 109.146 88.5287 108.894L87.5649 108.267L88.5287 107.639C89.4537 107.038 90.0876 106.119 90.314 105.039C90.521 104.075 90.3787 103.092 89.9194 102.238C89.8677 102.135 89.803 102.038 89.7448 101.941C88.9815 100.763 87.6878 100.065 86.2906 100.065C85.9025 100.065 85.5208 100.116 85.1521 100.226C84.7899 100.33 84.4471 100.485 84.1236 100.686C84.1107 100.019 83.9361 99.3855 83.6385 98.8293C82.9399 97.5356 81.5751 96.6559 80.0097 96.6559C77.7651 96.6559 75.941 98.4541 75.8893 100.686C75.2359 100.278 74.4921 100.071 73.7223 100.071C72.3187 100.071 71.0314 100.77 70.2682 101.947C69.0327 103.855 69.576 106.41 71.4778 107.646L71.7947 107.853L72.448 108.273L72.1893 108.441L71.4842 108.9C69.576 110.136 69.0391 112.691 70.2746 114.599C70.6627 115.194 71.1867 115.666 71.7882 115.99C72.3769 116.3 73.0367 116.475 73.7288 116.475C74.4985 116.475 75.2424 116.261 75.8957 115.86C75.9151 116.649 76.1545 117.387 76.5555 118.008C76.9307 118.59 77.4546 119.075 78.0691 119.405C78.6448 119.715 79.3111 119.89 80.0097 119.89C82.2543 119.89 84.0784 118.092 84.1301 115.86C84.7834 116.268 85.5273 116.475 86.2971 116.475C87.7007 116.475 88.9879 115.776 89.7512 114.599C90.5986 113.286 90.6115 111.669 89.9129 110.382C89.79 110.168 89.6607 109.968 89.5119 109.787ZM85.3462 113.79L81.7238 111.436V115.75C81.7238 116.701 80.9541 117.477 79.9968 117.477C79.9838 117.477 79.9709 117.477 79.9579 117.477C79.02 117.458 78.2697 116.695 78.2697 115.75V111.436L74.6473 113.79C74.3562 113.978 74.0328 114.069 73.7094 114.069C73.6965 114.069 73.6835 114.069 73.6706 114.069C73.1208 114.056 72.5839 113.778 72.2604 113.286C71.743 112.484 71.9694 111.417 72.7715 110.899L76.3744 108.558L76.8337 108.26L73.7159 106.235L72.7715 105.621C71.9694 105.104 71.743 104.036 72.2604 103.234C72.5903 102.723 73.1466 102.452 73.7094 102.452C74.0328 102.452 74.3562 102.542 74.6473 102.73L78.2697 105.078V100.763C78.2697 99.8125 79.0394 99.0363 79.9968 99.0363C80.9412 99.0363 81.7044 99.7866 81.7238 100.724C81.7238 100.737 81.7238 100.75 81.7238 100.763V105.078L83.4121 103.985L85.3462 102.73C85.6373 102.542 85.9607 102.452 86.2841 102.452C86.8469 102.452 87.4032 102.73 87.7331 103.234C87.9142 103.512 88.0047 103.829 88.0112 104.14C88.0241 104.715 87.746 105.285 87.2285 105.621L83.1728 108.254L85.3203 109.644L87.235 110.886C87.6296 111.145 87.8883 111.533 87.9789 111.96C88.0759 112.393 88.0047 112.872 87.7395 113.273C87.4096 113.784 86.8533 114.056 86.2906 114.056C85.9607 114.069 85.6373 113.985 85.3462 113.79Z" fill="#333333"/>
<path d="M112.326 109.787C112.055 109.444 111.725 109.146 111.343 108.894L110.379 108.267L111.343 107.639C112.268 107.038 112.902 106.119 113.128 105.039C113.335 104.075 113.193 103.092 112.727 102.238C112.676 102.135 112.617 102.038 112.553 101.941C111.789 100.763 110.496 100.065 109.098 100.065C108.71 100.065 108.329 100.116 107.96 100.226C107.598 100.33 107.255 100.485 106.932 100.686C106.919 100.019 106.744 99.3855 106.446 98.8293C105.748 97.5356 104.383 96.6559 102.818 96.6559C100.573 96.6559 98.7489 98.4541 98.6971 100.686C98.0438 100.278 97.3 100.071 96.5302 100.071C95.1265 100.071 93.8393 100.77 93.076 101.947C92.4745 102.872 92.2739 103.972 92.5003 105.045C92.7267 106.119 93.3607 107.044 94.2856 107.646L94.5961 107.846L95.2495 108.273L94.9907 108.441L94.2856 108.9C92.3839 110.136 91.8341 112.691 93.076 114.599C93.4642 115.194 93.9881 115.666 94.5897 115.99C95.1783 116.307 95.8445 116.475 96.5302 116.475C97.3 116.475 98.0438 116.261 98.6971 115.86C98.7166 116.649 98.9559 117.387 99.3569 118.008C99.7386 118.59 100.256 119.075 100.871 119.405C101.453 119.715 102.113 119.89 102.811 119.89C105.049 119.89 106.88 118.092 106.932 115.86C107.585 116.268 108.329 116.475 109.098 116.475C110.502 116.475 111.789 115.776 112.553 114.599C113.406 113.286 113.413 111.669 112.714 110.382C112.604 110.168 112.469 109.968 112.326 109.787ZM108.161 113.79L104.538 111.436V115.75C104.538 116.701 103.768 117.477 102.811 117.477C102.798 117.477 102.785 117.477 102.772 117.477C101.834 117.458 101.084 116.695 101.084 115.75V111.436L97.4617 113.79C97.1706 113.978 96.8472 114.069 96.5237 114.069C96.5108 114.069 96.4979 114.069 96.4849 114.069C95.9351 114.056 95.3982 113.778 95.0748 113.286C94.5573 112.484 94.7837 111.417 95.5793 110.899L99.1823 108.558L99.6416 108.26L96.5302 106.235L95.5858 105.621C94.7837 105.104 94.5573 104.036 95.0813 103.234C95.4112 102.723 95.9674 102.452 96.5302 102.452C96.8536 102.452 97.1771 102.542 97.4681 102.73L101.09 105.078V100.763C101.09 99.8125 101.86 99.0363 102.818 99.0363C103.756 99.0363 104.525 99.7866 104.545 100.724C104.545 100.737 104.545 100.75 104.545 100.763V105.078L106.233 103.985L108.167 102.73C108.458 102.542 108.782 102.452 109.105 102.452C109.668 102.452 110.224 102.73 110.554 103.234C110.735 103.512 110.826 103.829 110.832 104.14C110.845 104.715 110.567 105.285 110.049 105.621L105.994 108.254L108.141 109.644L110.056 110.886C110.45 111.145 110.709 111.533 110.8 111.96C110.897 112.393 110.826 112.865 110.56 113.273C110.23 113.784 109.674 114.056 109.111 114.056C108.775 114.069 108.445 113.985 108.161 113.79Z" fill="#333333"/>
<path d="M149.345 127.717C149.345 128.377 148.808 128.913 148.149 128.913H11.8513C11.1915 128.913 10.6546 128.377 10.6546 127.717C10.6546 127.057 11.1915 126.52 11.8513 126.52H148.155C148.815 126.52 149.345 127.057 149.345 127.717Z" fill="#333333"/>
<path d="M6.91584 128.913H1.4629C0.803119 128.913 0.266235 128.377 0.266235 127.717C0.266235 127.057 0.803119 126.52 1.4629 126.52H6.91584C7.57562 126.52 8.11251 127.057 8.11251 127.717C8.11251 128.377 7.57562 128.913 6.91584 128.913Z" fill="#333333"/>
<path d="M33.7406 123.053H28.2877C27.6279 123.053 27.091 122.516 27.091 121.856C27.091 121.197 27.6279 120.66 28.2877 120.66H33.7406C34.4004 120.66 34.9373 121.197 34.9373 121.856C34.9373 122.516 34.4004 123.053 33.7406 123.053Z" fill="#333333"/>
<path d="M23.3523 123.053H17.8993C17.2395 123.053 16.7027 122.516 16.7027 121.856C16.7027 121.197 17.2395 120.66 17.8993 120.66H23.3523C24.012 120.66 24.5489 121.197 24.5489 121.856C24.5489 122.516 24.012 123.053 23.3523 123.053Z" fill="#333333"/>
<path d="M131.712 123.053H126.259C125.6 123.053 125.063 122.516 125.063 121.856C125.063 121.197 125.6 120.66 126.259 120.66H131.712C132.372 120.66 132.909 121.197 132.909 121.856C132.909 122.516 132.372 123.053 131.712 123.053Z" fill="#333333"/>
<path d="M142.101 123.053H136.648C135.988 123.053 135.451 122.516 135.451 121.856C135.451 121.197 135.988 120.66 136.648 120.66H142.101C142.76 120.66 143.297 121.197 143.297 121.856C143.297 122.516 142.76 123.053 142.101 123.053Z" fill="#333333"/>
<path d="M158.537 128.913H153.084C152.424 128.913 151.887 128.377 151.887 127.717C151.887 127.057 152.424 126.52 153.084 126.52H158.537C159.197 126.52 159.734 127.057 159.734 127.717C159.734 128.377 159.197 128.913 158.537 128.913Z" fill="#333333"/>
</svg>
