<svg width="73" height="73" viewBox="0 0 73 73" fill="none" xmlns="http://www.w3.org/2000/svg">
<circle cx="36.5" cy="36.5" r="35" fill="#094F90" stroke="#D2ECFC" stroke-width="3"/>
<path opacity="0.4" d="M47.4156 28.0701C45.769 24.7451 42.5865 22.291 38.8973 21.4835C35.034 20.6285 31.0756 21.5468 28.0515 23.9851C25.0115 26.4076 23.2856 30.0335 23.2856 33.9126C23.2856 38.0135 25.7398 42.3043 29.4448 44.7901V46.1043C29.429 46.5476 29.4131 47.2285 29.9515 47.7826C30.5056 48.3526 31.329 48.416 31.9781 48.416H40.1006C40.9556 48.416 41.6048 48.1785 42.0481 47.7351C42.6498 47.1176 42.634 46.326 42.6181 45.8985V44.7901C47.5265 41.481 50.614 34.4985 47.4156 28.0701Z" fill="#F2F7FC"/>
<path d="M41.1616 52.8333C41.0666 52.8333 40.9558 52.8175 40.8608 52.7858C37.6783 51.8833 34.3374 51.8833 31.1549 52.7858C30.5691 52.9442 29.9516 52.6117 29.7933 52.0258C29.6191 51.44 29.9674 50.8225 30.5533 50.6642C34.1316 49.6508 37.8999 49.6508 41.4783 50.6642C42.0641 50.8383 42.4124 51.44 42.2383 52.0258C42.0799 52.5167 41.6366 52.8333 41.1616 52.8333Z" fill="#F2F7FC"/>
<path d="M36.0001 39.9293C35.7942 39.9293 35.5884 39.8818 35.4142 39.771C34.8442 39.4385 34.6542 38.7101 34.9709 38.156L36.3167 35.8126H34.9867C34.1951 35.8126 33.5459 35.4643 33.1976 34.8785C32.8492 34.2768 32.8809 33.5485 33.2767 32.8518L34.9709 29.9068C35.3034 29.3368 36.0317 29.1468 36.5859 29.4635C37.1559 29.796 37.3459 30.5243 37.0292 31.0785L35.6834 33.4376H37.0134C37.8051 33.4376 38.4542 33.786 38.8026 34.3718C39.1509 34.9735 39.1192 35.7018 38.7234 36.3985L37.0292 39.3435C36.8076 39.7235 36.4117 39.9293 36.0001 39.9293Z" fill="#F2F7FC"/>
</svg>
