<svg width="40" height="40" viewBox="0 0 40 40" fill="none" xmlns="http://www.w3.org/2000/svg">
<rect width="40" height="40" rx="8" fill="#2B6197"/>
<path d="M31.0769 13.9167H8.92308C8.41846 13.9167 8 13.3501 8 12.6667C8 11.9834 8.41846 11.4167 8.92308 11.4167H31.0769C31.5815 11.4167 32 11.9834 32 12.6667C32 13.3501 31.5815 13.9167 31.0769 13.9167Z" fill="white"/>
<path d="M28 21.25H12C11.4533 21.25 11 20.6833 11 20C11 19.3167 11.4533 18.75 12 18.75H28C28.5467 18.75 29 19.3167 29 20C29 20.6833 28.5467 21.25 28 21.25Z" fill="white"/>
<path d="M23.6364 28.5H16.3636C15.6182 28.5 15 27.9333 15 27.25C15 26.5667 15.6182 26 16.3636 26H23.6364C24.3818 26 25 26.5667 25 27.25C25 27.9333 24.3818 28.5 23.6364 28.5Z" fill="white"/>
</svg>
