<?xml version="1.0" encoding="utf-8" ?>
<svg xmlns="http://www.w3.org/2000/svg" xmlns:xlink="http://www.w3.org/1999/xlink" width="2879" height="644">
	<path fill="#0B68BE" d="M0 0L2877.25 0C2880.37 4.97952 2880.17 47.7371 2878.6 54.5943C2878.41 55.437 2878.06 56.2318 2877.67 56.9999C2879.55 61.3334 2880.25 127.242 2878.3 132.483C2878.11 132.986 2877.88 133.461 2877.63 133.934C2878.98 136.884 2878.94 139.548 2878.98 142.719C2880.59 267.069 2879.03 391.644 2879.01 516.016C2879.01 533.712 2880.58 635.507 2878.33 641.987C2878.07 642.724 2877.71 643.368 2877.25 644L0 644L0 428.235L0 296.319L0 0ZM0 0L0 296.319C21.1917 301.831 41.5555 310.148 61.9896 317.924Q143.906 297.591 226.145 278.603C238.276 275.76 276.321 265.097 285.82 265.747C301.528 266.821 336.886 282.573 353.161 288.263L495.455 337.517Q559.263 307.418 622.659 276.458C645.966 265.075 668.891 252.717 692.352 241.686C704.917 235.778 717.901 230.763 730.664 225.304C736.169 227.793 807.837 283.74 810.125 287.422C832.292 285.738 855.131 280.659 877.132 277.176L1009.83 256.155L1424.36 190.553L1739.28 140.688Q1779.22 134.28 1819.24 128.36C1837.18 125.782 1856.32 124.46 1873.74 119.478C1889.21 115.054 1904.72 104.622 1918.88 96.9893L2007.56 48.6353C2019.14 42.3717 2039.63 33.5739 2049.47 26.468C2054.37 28.0408 2058.36 30.7709 2062.57 33.6739C2081.26 46.5872 2099.28 60.5354 2117.58 74.0119Q2171.13 113.129 2224.17 152.945C2234.75 160.809 2263.76 178.328 2269.61 186.899C2295.21 183.188 2325.07 169.481 2350.16 161.047C2401.09 143.929 2452.33 127.75 2503 109.887C2514.02 106.001 2525.22 102.411 2536.76 100.406C2559.83 96.3961 2583.59 94.386 2606.82 91.239L2793.36 67.0096C2803.45 65.7052 2871.42 55.5774 2876.01 56.2016C2876.44 56.2601 2877.25 56.7965 2877.67 56.9999C2878.06 56.2318 2878.41 55.437 2878.6 54.5943C2880.17 47.7371 2880.37 4.97952 2877.25 0L0 0Z"/>
	<path fill="#0A4F90" d="M767.89 483.735C792.521 485.829 817.801 492.745 842.039 497.686L974.228 524.452L1230.83 575.912Q1311.04 591.661 1391.01 608.578C1402.22 611.038 1417.16 615.568 1428.61 613.359C1442.48 610.684 1456.68 603.792 1469.83 598.657Q1497.62 587.857 1525.52 577.353L1761.16 488.245L2654.27 150.748C2674.1 143.231 2717.77 123.357 2736.28 122.622C2756.35 121.825 2870.4 138.557 2877.63 133.934C2878.98 136.884 2878.94 139.548 2878.98 142.719C2880.59 267.069 2879.03 391.644 2879.01 516.016C2879.01 533.712 2880.58 635.507 2878.33 641.987C2878.07 642.724 2877.71 643.368 2877.25 644L0 644L0 428.235C12.9559 427.277 26.0928 424.234 38.883 421.944L102.916 410.57L319.549 372.44C339.398 390.96 496.428 534.21 506.935 537.63C518.756 541.477 533.598 541.838 546.028 543.698C580.521 548.857 615.299 553.074 649.363 560.651C655.845 557.586 662.246 552.296 668.359 548.39Q693.201 532.556 717.87 516.455C730.105 508.533 758.712 492.502 767.89 483.735Z"/>
</svg>
