<svg width="202" height="201" viewBox="0 0 202 201" fill="none" xmlns="http://www.w3.org/2000/svg">
<path d="M178.404 172.637C174.26 176.946 170.34 179.725 167.243 181.92C130.834 207.728 87.752 200.205 78.5959 198.368C65.0753 195.655 38.9402 190.411 20.045 168.46C-8.54178 135.25 -4.09041 82.9276 18.0835 48.3891C22.1395 42.0714 43.5642 7.00682 87.1098 1.38361C113.463 -2.01952 144.183 4.84418 166.429 23.2564C213.126 61.9052 209.801 139.983 178.404 172.637Z" fill="url(#paint0_linear_66_5042)"/>
<path d="M85.5923 140.113L81.2529 179.03H131.597L125.04 140.113H85.5923Z" fill="url(#paint1_linear_66_5042)"/>
<path d="M1.02246 44.2282V133.359C1.02246 140.692 6.86535 146.688 14.1952 146.877C46.7502 147.716 160.612 149.752 191.602 149.295C196.929 149.216 201.244 144.954 201.397 139.629C201.995 118.923 202.965 69.1309 199.374 46.0145C198.617 41.1464 194.508 37.5061 189.584 37.3487C162.307 36.476 41.6063 33.7052 10.6305 34.4009C5.28823 34.5207 1.02246 38.8846 1.02246 44.2282Z" fill="url(#paint2_linear_66_5042)"/>
<path d="M6.61523 43.7942V128.475C6.61523 132.756 10.0517 136.244 14.3321 136.308L187.144 138.443C191.388 138.507 194.866 135.092 194.882 130.848L195.171 46.924C195.183 43.8893 192.765 41.4028 189.731 41.3289L12.8038 37.7545C9.41055 37.6719 6.61523 40.4001 6.61523 43.7942Z" fill="#C7D7F6"/>
<path opacity="0.65" d="M196.183 141.917C196.182 141.917 196.18 141.917 196.179 141.917L6.61122 138.687C6.47684 138.685 6.36975 138.574 6.37211 138.44C6.37475 138.306 6.49677 138.199 6.61929 138.201L196.187 141.431C196.321 141.433 196.429 141.544 196.426 141.678C196.424 141.811 196.316 141.917 196.183 141.917Z" fill="white"/>
<path opacity="0.65" d="M103.269 145.862C102.048 145.862 101.054 144.868 101.054 143.647C101.054 142.425 102.048 141.431 103.269 141.431C104.491 141.431 105.485 142.425 105.485 143.647C105.485 144.868 104.491 145.862 103.269 145.862ZM103.269 141.917C102.316 141.917 101.54 142.693 101.54 143.647C101.54 144.6 102.316 145.376 103.269 145.376C104.223 145.376 104.999 144.6 104.999 143.647C104.999 142.693 104.223 141.917 103.269 141.917Z" fill="white"/>
<path d="M142.442 186.993H68.759C66.7573 186.993 65.2541 185.568 65.6411 184.037L66.5865 180.298C66.8709 179.173 68.1079 178.348 69.5773 178.302L140.61 176.085C142.145 176.037 143.504 176.852 143.839 178.021L145.543 183.976C145.986 185.524 144.476 186.993 142.442 186.993Z" fill="url(#paint3_linear_66_5042)"/>
<path d="M108.424 179.318C108.291 179.318 108.183 179.211 108.181 179.078C108.179 178.944 108.286 178.833 108.42 178.831L111.464 178.787C111.465 178.787 111.467 178.787 111.468 178.787C111.6 178.787 111.709 178.894 111.711 179.027C111.713 179.161 111.605 179.271 111.471 179.273L108.427 179.318C108.426 179.318 108.425 179.318 108.424 179.318Z" fill="white"/>
<path d="M68.3693 184.934C68.3567 184.934 68.3437 184.933 68.3309 184.931C68.1981 184.91 68.1079 184.785 68.129 184.653L68.5633 181.933C68.7967 180.47 70.0414 179.393 71.5226 179.371L103.807 178.899C103.808 178.899 103.81 178.899 103.811 178.899C103.944 178.899 104.052 179.005 104.054 179.138C104.056 179.273 103.949 179.383 103.814 179.385L71.5297 179.857C70.2853 179.875 69.2398 180.781 69.0435 182.01L68.6092 184.729C68.5901 184.849 68.4868 184.934 68.3693 184.934Z" fill="white"/>
<path d="M151.286 7.70647C152.387 7.75862 153.499 7.85956 154.59 8.00608C154.74 8.02616 154.886 8.01294 155.022 7.97201C155.394 7.85963 155.686 7.53836 155.741 7.12723C155.817 6.56671 155.423 6.05098 154.862 5.97561C153.714 5.82137 152.543 5.71528 151.383 5.66034C150.818 5.63363 150.338 6.06998 150.311 6.63508C150.284 7.19988 150.721 7.6796 151.286 7.70647Z" fill="url(#paint4_linear_66_5042)"/>
<path d="M122.59 16.9978C122.199 16.5893 121.551 16.5754 121.142 16.967C120.305 17.7695 119.492 18.6181 118.726 19.4885C118.353 19.9133 118.394 20.5602 118.819 20.9341C119.095 21.1768 119.465 21.2441 119.792 21.1453C119.969 21.0919 120.134 20.9905 120.265 20.8415C120.992 20.0145 121.764 19.2086 122.56 18.4459C122.968 18.0544 122.982 17.4058 122.59 16.9978Z" fill="url(#paint5_linear_66_5042)"/>
<path d="M110.03 40.1449C109.47 40.0694 108.954 40.4613 108.877 41.0218C108.721 42.1714 108.613 43.3415 108.556 44.4996C108.528 45.0646 108.964 45.545 109.529 45.5732C109.649 45.5791 109.766 45.5639 109.875 45.531C110.278 45.4094 110.58 45.045 110.602 44.6004C110.656 43.5005 110.759 42.3896 110.907 41.298C110.984 40.7375 110.591 40.2212 110.03 40.1449Z" fill="url(#paint6_linear_66_5042)"/>
<path d="M116.702 23.7041C116.23 23.3924 115.595 23.523 115.284 23.9955C114.644 24.9649 114.039 25.9722 113.486 26.9887C113.215 27.4853 113.399 28.1073 113.896 28.3779C114.146 28.5143 114.428 28.5353 114.681 28.459C114.93 28.3839 115.151 28.2145 115.285 27.968C115.811 27.002 116.386 26.0446 116.994 25.1232C117.305 24.6507 117.175 24.0155 116.702 23.7041Z" fill="url(#paint7_linear_66_5042)"/>
<path d="M142.61 8.27383C143.696 8.07959 144.802 7.92928 145.899 7.82798C145.969 7.82155 146.036 7.80783 146.101 7.78825C146.558 7.65052 146.87 7.20659 146.824 6.71351C146.772 6.15034 146.273 5.73585 145.71 5.788C144.556 5.89487 143.392 6.05304 142.249 6.25736C141.691 6.35459 141.322 6.88932 141.421 7.44613C141.521 8.00272 142.053 8.37335 142.61 8.27383Z" fill="url(#paint8_linear_66_5042)"/>
<path d="M112.444 31.5488C111.914 31.3499 111.324 31.6174 111.124 32.1462C110.715 33.2315 110.348 34.3481 110.033 35.4648C109.88 36.0092 110.197 36.5752 110.741 36.7286C110.936 36.7835 111.134 36.7783 111.314 36.7238C111.638 36.6261 111.906 36.3705 112.005 36.0209C112.304 34.9596 112.653 33.8991 113.041 32.8684C113.24 32.3391 112.973 31.7482 112.444 31.5488Z" fill="url(#paint9_linear_66_5042)"/>
<path d="M109.6 49.0589C109.035 49.112 108.622 49.6082 108.673 50.1716C108.777 51.3232 108.932 52.4874 109.135 53.6316C109.233 54.1885 109.765 54.5602 110.322 54.4616C110.363 54.4544 110.402 54.4449 110.441 54.4333C110.931 54.2855 111.244 53.7912 111.152 53.2747C110.96 52.1873 110.812 51.0814 110.713 49.9867C110.662 49.4237 110.164 49.008 109.6 49.0589Z" fill="url(#paint10_linear_66_5042)"/>
<path d="M126.393 15.15C126.499 15.118 126.601 15.0679 126.696 14.9996C127.589 14.3553 128.521 13.7421 129.466 13.1771C129.951 12.8865 130.109 12.2575 129.819 11.7721C129.529 11.2864 128.901 11.1309 128.414 11.419C127.419 12.0142 126.438 12.6599 125.498 13.3384C125.039 13.6694 124.935 14.3095 125.266 14.7684C125.529 15.1322 125.986 15.2726 126.393 15.15Z" fill="url(#paint11_linear_66_5042)"/>
<path d="M134.167 10.7796C134.202 10.7691 134.237 10.7566 134.271 10.7425C135.285 10.3146 136.33 9.92485 137.379 9.58422C137.917 9.40977 138.212 8.83203 138.037 8.2938C137.865 7.76286 137.3 7.46902 136.768 7.62948C136.761 7.63155 136.754 7.63369 136.747 7.63619C135.642 7.99439 134.542 8.4046 133.474 8.85475C132.953 9.075 132.709 9.67567 132.929 10.197C133.134 10.6836 133.672 10.9288 134.167 10.7796Z" fill="url(#paint12_linear_66_5042)"/>
<path d="M112.448 58.4923C112.276 57.9603 111.706 57.6518 111.174 57.8125C111.167 57.8144 111.161 57.8164 111.154 57.8183C110.613 57.9816 110.325 58.5828 110.498 59.1213C110.855 60.228 111.272 61.3613 111.72 62.428C111.925 62.9158 112.461 63.1534 112.957 63.0038C112.991 62.9936 113.02 62.9651 113.053 62.9509C113.575 62.7321 113.821 62.1346 113.602 61.6131C113.177 60.5997 112.787 59.5438 112.448 58.4923Z" fill="url(#paint13_linear_66_5042)"/>
<path d="M162.713 8.90655C162.888 8.36896 162.594 7.79079 162.056 7.61577C161.527 7.44374 160.987 7.27992 160.449 7.12883C159.904 6.97473 159.338 7.29278 159.185 7.83752C159.032 8.38189 159.35 8.94763 159.894 9.10058C160.406 9.24467 160.92 9.40013 161.422 9.5638C161.628 9.63102 161.841 9.62881 162.034 9.57058C162.344 9.47707 162.605 9.23825 162.713 8.90655Z" fill="url(#paint14_linear_66_5042)"/>
<path d="M145.625 85.2189C144.546 85.1131 143.459 84.9596 142.393 84.7633C141.836 84.6605 141.303 85.0283 141.2 85.585C141.098 86.1411 141.465 86.6751 142.022 86.7777C143.144 86.9845 144.289 87.146 145.425 87.2575C145.563 87.2708 145.696 87.2569 145.821 87.2193C146.206 87.1031 146.503 86.7637 146.545 86.3382C146.6 85.7754 146.188 85.2739 145.625 85.2189Z" fill="url(#paint15_linear_66_5042)"/>
<path d="M187.885 31.3261C188.108 31.785 188.628 32.0025 189.101 31.8598C189.153 31.8442 189.204 31.8247 189.254 31.8004C189.763 31.5533 189.975 30.9406 189.728 30.4316C189.486 29.9315 189.228 29.4278 188.963 28.9352C188.696 28.437 188.077 28.249 187.576 28.5178C187.078 28.7855 186.891 29.4064 187.159 29.9049C187.41 30.3727 187.655 30.851 187.885 31.3261Z" fill="url(#paint16_linear_66_5042)"/>
<path d="M192.539 43.5012C191.978 43.556 191.564 44.0566 191.619 44.6197C191.724 45.6995 191.784 46.7956 191.797 47.878C191.804 48.4435 192.269 48.8964 192.834 48.8891C192.933 48.8879 193.028 48.873 193.118 48.8459C193.544 48.7174 193.851 48.3191 193.846 47.852C193.831 46.7125 193.768 45.5585 193.658 44.4218C193.603 43.8586 193.102 43.4463 192.539 43.5012Z" fill="url(#paint17_linear_66_5042)"/>
<path d="M192.643 52.2859C192.083 52.2155 191.57 52.6134 191.499 53.1746C191.364 54.2492 191.181 55.332 190.955 56.3936C190.838 56.9468 191.19 57.4907 191.744 57.6084C191.919 57.6455 192.092 57.6357 192.252 57.5875C192.598 57.4831 192.878 57.1984 192.959 56.8197C193.197 55.7024 193.389 54.5619 193.532 53.43C193.602 52.8687 193.205 52.3564 192.643 52.2859Z" fill="url(#paint18_linear_66_5042)"/>
<path d="M185.728 69.1736C185.147 70.0878 184.52 70.9895 183.864 71.8535C183.522 72.304 183.61 72.9465 184.06 73.2887C184.332 73.4948 184.673 73.5448 184.976 73.4533C185.176 73.393 185.359 73.2713 185.495 73.0924C186.186 72.1833 186.846 71.2345 187.457 70.2723C187.761 69.7947 187.62 69.1618 187.142 68.8584C186.664 68.5547 186.031 68.6957 185.728 69.1736Z" fill="url(#paint19_linear_66_5042)"/>
<path d="M173.703 81.1847C172.786 81.7648 171.834 82.3115 170.874 82.8101C170.372 83.071 170.176 83.6892 170.437 84.1915C170.668 84.6355 171.178 84.8397 171.64 84.7002C171.701 84.6821 171.76 84.6583 171.818 84.6283C172.829 84.103 173.832 83.5273 174.798 82.9166C175.276 82.6144 175.419 81.9817 175.116 81.5033C174.814 81.0252 174.182 80.8832 173.703 81.1847Z" fill="url(#paint20_linear_66_5042)"/>
<path d="M180.378 75.8466C179.61 76.6139 178.802 77.3567 177.975 78.0541C177.543 78.4189 177.488 79.0652 177.853 79.4976C178.125 79.8197 178.553 79.9322 178.932 79.8178C179.062 79.7786 179.186 79.7128 179.296 79.6198C180.167 78.8854 181.018 78.1034 181.826 77.2954C182.226 76.8956 182.226 76.2473 181.827 75.8472C181.427 75.4467 180.778 75.4467 180.378 75.8466Z" fill="url(#paint21_linear_66_5042)"/>
<path d="M190.811 60.8775C190.278 60.685 189.692 60.961 189.5 61.4928C189.132 62.5114 188.716 63.5278 188.263 64.5148C188.027 65.029 188.253 65.6371 188.767 65.8728C189.003 65.9812 189.259 65.9922 189.489 65.9226C189.761 65.8408 189.997 65.6469 190.125 65.369C190.601 64.3306 191.039 63.2604 191.426 62.1887C191.618 61.6565 191.343 61.0697 190.811 60.8775Z" fill="url(#paint22_linear_66_5042)"/>
<path d="M157.686 86.9011C156.608 87.0348 155.513 87.1248 154.431 87.1678C153.866 87.1885 153.426 87.6666 153.448 88.2319C153.471 88.7969 153.947 89.2369 154.512 89.2144C155.651 89.1692 156.804 89.0748 157.938 88.9337C157.997 88.9265 158.054 88.9142 158.109 88.8977C158.578 88.7562 158.891 88.2937 158.828 87.791C158.758 87.2299 158.247 86.8313 157.686 86.9011Z" fill="url(#paint23_linear_66_5042)"/>
<path d="M166.013 84.9256C164.998 85.2869 163.952 85.6102 162.892 85.8914C162.348 86.0339 162.02 86.5975 162.165 87.1442C162.31 87.691 162.871 88.0166 163.418 87.8718C163.877 87.75 164.332 87.621 164.783 87.4849C165.427 87.2907 166.072 87.0791 166.699 86.8556C167.232 86.666 167.511 86.0801 167.321 85.5469C167.131 85.014 166.546 84.7367 166.013 84.9256Z" fill="url(#paint24_linear_66_5042)"/>
<path d="M191.815 35.6098C191.64 35.0722 191.066 34.7653 190.525 34.9531C189.987 35.128 189.692 35.7061 189.867 36.2441C189.956 36.517 190.043 36.7918 190.126 37.068C190.356 37.831 190.566 38.6115 190.749 39.3887C190.879 39.9391 191.431 40.2799 191.982 40.1499C192.002 40.1449 192.023 40.1396 192.043 40.1335C192.557 39.9784 192.868 39.4475 192.743 38.9177C192.55 38.1004 192.329 37.279 192.087 36.4765C191.999 36.1857 191.909 35.8972 191.815 35.6098Z" fill="url(#paint25_linear_66_5042)"/>
<path d="M137.233 83.4381C136.733 83.2725 136.227 83.0934 135.729 82.9055C135.199 82.7054 134.609 82.973 134.409 83.5021C134.209 84.0313 134.476 84.6222 135.006 84.8221C135.53 85.02 136.063 85.2087 136.589 85.3829C136.797 85.4515 137.011 85.45 137.206 85.3912C137.514 85.2981 137.774 85.0614 137.883 84.7322C138.061 84.195 137.77 83.6156 137.233 83.4381Z" fill="url(#paint26_linear_66_5042)"/>
<path d="M182.982 38.0305L177.216 37.2176C176.113 34.7617 174.64 32.5394 172.885 30.5978L165.443 32.028L159.755 38.1946L164.776 49.0658L152.069 48.6411L144.641 54.1714L145.65 63.9305L137.839 62.416L135.18 65.0531L133.679 70.6638C133.627 70.8611 133.705 71.07 133.874 71.1843L139.668 75.0923C139.837 75.2065 140.061 75.2007 140.224 75.0779L144.878 71.5734C147.422 72.5404 150.138 73.1088 152.936 73.2155L155.849 78.2567C155.952 78.4335 156.155 78.526 156.355 78.487L163.216 77.1535C163.416 77.1145 163.57 76.9526 163.598 76.7505L164.411 70.9848C166.966 69.8376 169.271 68.2932 171.267 66.4438L176.895 67.9492C177.092 68.002 177.301 67.9238 177.416 67.7546L181.324 61.9606C181.438 61.7911 181.432 61.568 181.309 61.4049L177.805 56.7502C178.772 54.2069 179.34 51.491 179.447 48.6929L184.488 45.7792C184.665 45.677 184.758 45.4739 184.718 45.2735L183.385 38.413C183.346 38.2127 183.184 38.0589 182.982 38.0305Z" fill="url(#paint27_linear_66_5042)"/>
<path d="M156.22 52.5734C153.755 53.7328 150.852 52.8488 149.412 50.6218L148.097 51.6027C149.806 54.158 153.009 55.3143 155.954 54.4261C156.279 54.328 156.601 54.2049 156.917 54.0565C159.05 53.0543 160.443 51.1099 160.837 48.9515L159.175 48.8926C158.818 50.453 157.778 51.8416 156.22 52.5734Z" fill="url(#paint28_linear_66_5042)"/>
<path d="M170.532 42.5471C169.433 38.9062 167.181 35.7617 164.058 33.5289L163.498 34.1362C166.516 36.2666 168.691 39.285 169.748 42.7853C169.91 43.3224 170.046 43.871 170.154 44.4292C170.773 47.6124 170.425 50.7635 169.315 53.5776C167.321 58.6373 162.866 62.6088 157.142 63.7205C155.99 63.9448 154.816 64.0466 153.651 64.0228C153.426 64.0187 153.238 64.1977 153.233 64.4239C153.233 64.4681 153.239 64.511 153.251 64.5512C153.301 64.7166 153.453 64.8384 153.635 64.842C153.704 64.8432 153.773 64.8059 153.843 64.8063C153.878 64.8068 153.914 64.7685 153.949 64.7685C153.962 64.7685 153.974 64.7685 153.987 64.7685C154.907 64.7685 155.831 64.7324 156.744 64.5851C156.93 64.5551 157.114 64.5416 157.299 64.5057C157.884 64.392 158.459 64.259 159.022 64.0892C162.817 62.9445 166.076 60.5541 168.323 57.2232C170.903 53.3982 171.839 48.7996 170.958 44.2702C170.844 43.6844 170.702 43.1109 170.532 42.5471Z" fill="url(#paint29_linear_66_5042)"/>
<path d="M139.698 59.4953L138.737 50.1967L146.164 44.6664L158.545 45.0802C158.695 45.0852 158.797 44.9304 158.734 44.7941L153.851 34.2199L159.538 28.0533L166.98 26.6231C166.91 26.5452 166.842 26.4647 166.771 26.3876L168.276 20.7588C168.329 20.5616 168.251 20.3527 168.081 20.2385L162.287 16.3304C162.118 16.2161 161.895 16.222 161.732 16.3448L157.077 19.8493C154.534 18.8822 151.818 18.3138 149.02 18.2072L146.106 13.1658C146.004 12.989 145.801 12.8965 145.6 12.9354L138.74 14.2691C138.539 14.3081 138.386 14.47 138.357 14.6722L137.544 20.4379C134.99 21.5849 132.685 23.1294 130.689 24.9788L125.06 23.4734C124.863 23.4205 124.654 23.4988 124.54 23.6681L120.632 29.4621C120.518 29.6315 120.523 29.8545 120.646 30.0176L124.15 34.6724C123.183 37.2157 122.615 39.9316 122.509 42.7297L117.467 45.6434C117.29 45.7455 117.198 45.9486 117.237 46.149L118.57 53.0094C118.609 53.21 118.771 53.3637 118.974 53.3922L124.739 54.205C125.886 56.7594 127.431 59.0645 129.28 61.0604L129.275 61.0783L131.934 58.4412L139.291 59.8676C139.517 59.9116 139.721 59.7245 139.698 59.4953Z" fill="url(#paint30_linear_66_5042)"/>
<path d="M143.508 46.6473C143.377 46.4459 143.255 46.2376 143.15 46.0146C141.887 43.3269 143.046 40.1121 145.734 38.8492C145.978 38.7347 146.227 38.6395 146.48 38.5632C147.58 38.2315 148.752 38.2607 149.852 38.6573C151.206 39.1455 152.288 40.1312 152.9 41.4336C153.431 42.5637 153.529 43.7859 153.27 44.9181L154.933 44.9771C155.187 43.5876 155.028 42.1095 154.383 40.7364C153.585 39.038 152.173 37.7521 150.408 37.1156C148.643 36.479 146.736 36.5676 145.037 37.3661C141.532 39.0136 140.02 43.2057 141.667 46.7119C141.82 47.0363 141.999 47.339 142.192 47.6283L143.508 46.6473Z" fill="url(#paint31_linear_66_5042)"/>
<path d="M157.757 29.2741C153.932 26.694 149.331 25.7577 144.802 26.6382C135.455 28.4553 129.324 37.5405 131.142 46.8906C131.254 47.4669 131.395 48.0354 131.564 48.5938C132.294 51.0142 133.546 53.2479 135.238 55.1302C135.389 55.2992 135.648 55.312 135.817 55.1612C135.939 55.0517 135.979 54.8852 135.935 54.7381C135.918 54.6821 135.889 54.629 135.847 54.5827C134.236 52.7899 133.044 50.6623 132.348 48.3568C132.187 47.8248 132.053 47.2831 131.946 46.734C130.215 37.8285 136.049 29.1757 144.958 27.4427C149.272 26.6041 153.655 27.4957 157.299 29.9534C157.399 30.0209 157.495 30.0922 157.594 30.1615L158.154 29.5542C158.022 29.4601 157.892 29.365 157.757 29.2741Z" fill="url(#paint32_linear_66_5042)"/>
<path d="M95.959 20.1061L43.9518 107.49C42.8101 109.409 44.3024 111.756 46.6765 111.776L149.77 112.624C152.153 112.644 153.69 110.306 152.568 108.368L101.482 20.1354C100.307 18.107 97.1588 18.0903 95.959 20.1061Z" fill="url(#paint33_linear_66_5042)"/>
<path d="M96.2219 25.3264L48.9891 104.689C47.9522 106.431 49.3076 108.563 51.4636 108.58L145.093 109.351C147.257 109.369 148.653 107.245 147.634 105.486L101.237 25.353C100.171 23.5108 97.3115 23.4956 96.2219 25.3264Z" fill="url(#paint34_linear_66_5042)"/>
<path d="M105.967 51.6169L102.651 85.5159H96.5819L93.2956 51.6169H105.967ZM105.02 92.7694C105.02 93.5194 104.872 94.23 104.576 94.901C104.299 95.5524 103.914 96.1248 103.421 96.6182C102.947 97.0919 102.375 97.4669 101.704 97.7432C101.052 98.0393 100.362 98.1873 99.6313 98.1873C98.8813 98.1873 98.1708 98.0393 97.4997 97.7432C96.8484 97.4669 96.276 97.0919 95.7825 96.6182C95.3089 96.1248 94.924 95.5524 94.6279 94.901C94.3516 94.23 94.2134 93.5194 94.2134 92.7694C94.2134 92.0391 94.3516 91.3483 94.6279 90.697C94.924 90.0259 95.3089 89.4535 95.7825 88.9798C96.276 88.4864 96.8484 88.1015 97.4997 87.8252C98.1708 87.5291 98.8813 87.3811 99.6313 87.3811C100.362 87.3811 101.052 87.5291 101.704 87.8252C102.375 88.1015 102.947 88.4864 103.421 88.9798C103.914 89.4535 104.299 90.0259 104.576 90.697C104.872 91.3483 105.02 92.0391 105.02 92.7694Z" fill="white"/>
<defs>
<linearGradient id="paint0_linear_66_5042" x1="227.112" y1="260.721" x2="48.0502" y2="38.3372" gradientUnits="userSpaceOnUse">
<stop stop-color="#DAE3FE"/>
<stop offset="1" stop-color="#E9EFFD"/>
</linearGradient>
<linearGradient id="paint1_linear_66_5042" x1="116.686" y1="142.265" x2="151.699" y2="67.3769" gradientUnits="userSpaceOnUse">
<stop stop-color="#09005D"/>
<stop offset="1" stop-color="#1A0F91"/>
</linearGradient>
<linearGradient id="paint2_linear_66_5042" x1="101.503" y1="7.05092" x2="101.503" y2="86.3161" gradientUnits="userSpaceOnUse">
<stop stop-color="#09005D"/>
<stop offset="1" stop-color="#1A0F91"/>
</linearGradient>
<linearGradient id="paint3_linear_66_5042" x1="123.584" y1="272.28" x2="111.427" y2="212.953" gradientUnits="userSpaceOnUse">
<stop stop-color="#003362"/>
<stop offset="1" stop-color="#1A0F91"/>
</linearGradient>
<linearGradient id="paint4_linear_66_5042" x1="155.428" y1="-20.1456" x2="143.274" y2="116.62" gradientUnits="userSpaceOnUse">
<stop stop-color="#4042E2"/>
<stop offset="1" stop-color="#4F52FF"/>
</linearGradient>
<linearGradient id="paint5_linear_66_5042" x1="124.391" y1="-22.9036" x2="112.238" y2="113.859" gradientUnits="userSpaceOnUse">
<stop stop-color="#4042E2"/>
<stop offset="1" stop-color="#4F52FF"/>
</linearGradient>
<linearGradient id="paint6_linear_66_5042" x1="115.633" y1="-23.6827" x2="103.48" y2="113.081" gradientUnits="userSpaceOnUse">
<stop stop-color="#4042E2"/>
<stop offset="1" stop-color="#4F52FF"/>
</linearGradient>
<linearGradient id="paint7_linear_66_5042" x1="119.647" y1="-23.3254" x2="107.493" y2="113.437" gradientUnits="userSpaceOnUse">
<stop stop-color="#4042E2"/>
<stop offset="1" stop-color="#4F52FF"/>
</linearGradient>
<linearGradient id="paint8_linear_66_5042" x1="146.602" y1="-20.9293" x2="134.448" y2="115.831" gradientUnits="userSpaceOnUse">
<stop stop-color="#4042E2"/>
<stop offset="1" stop-color="#4F52FF"/>
</linearGradient>
<linearGradient id="paint9_linear_66_5042" x1="116.68" y1="-23.5896" x2="104.526" y2="113.174" gradientUnits="userSpaceOnUse">
<stop stop-color="#4042E2"/>
<stop offset="1" stop-color="#4F52FF"/>
</linearGradient>
<linearGradient id="paint10_linear_66_5042" x1="116.615" y1="-23.5956" x2="104.462" y2="113.168" gradientUnits="userSpaceOnUse">
<stop stop-color="#4042E2"/>
<stop offset="1" stop-color="#4F52FF"/>
</linearGradient>
<linearGradient id="paint11_linear_66_5042" x1="130.68" y1="-22.3446" x2="118.527" y2="114.417" gradientUnits="userSpaceOnUse">
<stop stop-color="#4042E2"/>
<stop offset="1" stop-color="#4F52FF"/>
</linearGradient>
<linearGradient id="paint12_linear_66_5042" x1="138.212" y1="-21.675" x2="126.058" y2="115.086" gradientUnits="userSpaceOnUse">
<stop stop-color="#4042E2"/>
<stop offset="1" stop-color="#4F52FF"/>
</linearGradient>
<linearGradient id="paint13_linear_66_5042" x1="119.507" y1="-23.3388" x2="107.353" y2="113.426" gradientUnits="userSpaceOnUse">
<stop stop-color="#4042E2"/>
<stop offset="1" stop-color="#4F52FF"/>
</linearGradient>
<linearGradient id="paint14_linear_66_5042" x1="163.425" y1="-19.4349" x2="151.271" y2="117.331" gradientUnits="userSpaceOnUse">
<stop stop-color="#4042E2"/>
<stop offset="1" stop-color="#4F52FF"/>
</linearGradient>
<linearGradient id="paint15_linear_66_5042" x1="153.317" y1="-20.3363" x2="141.162" y2="116.431" gradientUnits="userSpaceOnUse">
<stop stop-color="#4042E2"/>
<stop offset="1" stop-color="#4F52FF"/>
</linearGradient>
<linearGradient id="paint16_linear_66_5042" x1="192.479" y1="-15.3683" x2="180.325" y2="121.396" gradientUnits="userSpaceOnUse">
<stop stop-color="#4042E2"/>
<stop offset="1" stop-color="#4F52FF"/>
</linearGradient>
<linearGradient id="paint17_linear_66_5042" x1="198.156" y1="-14.8639" x2="186.002" y2="121.9" gradientUnits="userSpaceOnUse">
<stop stop-color="#4042E2"/>
<stop offset="1" stop-color="#4F52FF"/>
</linearGradient>
<linearGradient id="paint18_linear_66_5042" x1="198.438" y1="-14.8385" x2="186.285" y2="121.925" gradientUnits="userSpaceOnUse">
<stop stop-color="#4042E2"/>
<stop offset="1" stop-color="#4F52FF"/>
</linearGradient>
<linearGradient id="paint19_linear_66_5042" x1="193.314" y1="-15.2934" x2="181.16" y2="121.469" gradientUnits="userSpaceOnUse">
<stop stop-color="#4042E2"/>
<stop offset="1" stop-color="#4F52FF"/>
</linearGradient>
<linearGradient id="paint20_linear_66_5042" x1="181.615" y1="-16.3324" x2="169.462" y2="120.429" gradientUnits="userSpaceOnUse">
<stop stop-color="#4042E2"/>
<stop offset="1" stop-color="#4F52FF"/>
</linearGradient>
<linearGradient id="paint21_linear_66_5042" x1="188.174" y1="-15.7501" x2="176.02" y2="121.012" gradientUnits="userSpaceOnUse">
<stop stop-color="#4042E2"/>
<stop offset="1" stop-color="#4F52FF"/>
</linearGradient>
<linearGradient id="paint22_linear_66_5042" x1="196.793" y1="-14.9844" x2="184.64" y2="121.779" gradientUnits="userSpaceOnUse">
<stop stop-color="#4042E2"/>
<stop offset="1" stop-color="#4F52FF"/>
</linearGradient>
<linearGradient id="paint23_linear_66_5042" x1="165.545" y1="-17.7596" x2="153.392" y2="119" gradientUnits="userSpaceOnUse">
<stop stop-color="#4042E2"/>
<stop offset="1" stop-color="#4F52FF"/>
</linearGradient>
<linearGradient id="paint24_linear_66_5042" x1="173.945" y1="-17.0137" x2="161.791" y2="119.747" gradientUnits="userSpaceOnUse">
<stop stop-color="#4042E2"/>
<stop offset="1" stop-color="#4F52FF"/>
</linearGradient>
<linearGradient id="paint25_linear_66_5042" x1="195.968" y1="-15.0584" x2="183.814" y2="121.706" gradientUnits="userSpaceOnUse">
<stop stop-color="#4042E2"/>
<stop offset="1" stop-color="#4F52FF"/>
</linearGradient>
<linearGradient id="paint26_linear_66_5042" x1="145.485" y1="-21.0307" x2="133.331" y2="115.735" gradientUnits="userSpaceOnUse">
<stop stop-color="#4042E2"/>
<stop offset="1" stop-color="#4F52FF"/>
</linearGradient>
<linearGradient id="paint27_linear_66_5042" x1="93.1865" y1="265.308" x2="114.3" y2="199.834" gradientUnits="userSpaceOnUse">
<stop stop-color="#003362"/>
<stop offset="1" stop-color="#1A0F91"/>
</linearGradient>
<linearGradient id="paint28_linear_66_5042" x1="148.097" y1="51.8075" x2="160.837" y2="51.8075" gradientUnits="userSpaceOnUse">
<stop stop-color="#4042E2"/>
<stop offset="1" stop-color="#4F52FF"/>
</linearGradient>
<linearGradient id="paint29_linear_66_5042" x1="153.233" y1="49.1854" x2="171.281" y2="49.1854" gradientUnits="userSpaceOnUse">
<stop stop-color="#4042E2"/>
<stop offset="1" stop-color="#4F52FF"/>
</linearGradient>
<linearGradient id="paint30_linear_66_5042" x1="69.7242" y1="257.742" x2="90.8379" y2="192.268" gradientUnits="userSpaceOnUse">
<stop stop-color="#003362"/>
<stop offset="1" stop-color="#1A0F91"/>
</linearGradient>
<linearGradient id="paint31_linear_66_5042" x1="141.001" y1="42.1617" x2="155.048" y2="42.1617" gradientUnits="userSpaceOnUse">
<stop stop-color="#4042E2"/>
<stop offset="1" stop-color="#4F52FF"/>
</linearGradient>
<linearGradient id="paint32_linear_66_5042" x1="130.823" y1="40.791" x2="158.154" y2="40.791" gradientUnits="userSpaceOnUse">
<stop stop-color="#4042E2"/>
<stop offset="1" stop-color="#4F52FF"/>
</linearGradient>
<linearGradient id="paint33_linear_66_5042" x1="82.7135" y1="21.3773" x2="100.391" y2="121.41" gradientUnits="userSpaceOnUse">
<stop stop-color="#09005D"/>
<stop offset="1" stop-color="#1A0F91"/>
</linearGradient>
<linearGradient id="paint34_linear_66_5042" x1="129.297" y1="34.5558" x2="37.8231" y2="246.413" gradientUnits="userSpaceOnUse">
<stop stop-color="#D43F46"/>
<stop offset="1" stop-color="#FF928E"/>
</linearGradient>
</defs>
</svg>
