<svg width="18" height="21" viewBox="0 0 18 21" fill="none" xmlns="http://www.w3.org/2000/svg">
<path d="M15.49 2.2175L9.99 0.1575C9.42 -0.0525 8.49 -0.0525 7.92 0.1575L2.42 2.2175C1.36 2.6175 0.5 3.8575 0.5 4.9875V13.0875C0.5 13.8975 1.03 14.9675 1.68 15.4475L7.18 19.5575C8.15 20.2875 9.74 20.2875 10.71 19.5575L16.21 15.4475C16.86 14.9575 17.39 13.8975 17.39 13.0875V4.9875C17.4 3.8575 16.54 2.6175 15.49 2.2175ZM12.43 7.8175L8.13 12.1175C7.98 12.2675 7.79 12.3375 7.6 12.3375C7.41 12.3375 7.22 12.2675 7.07 12.1175L5.47 10.4975C5.18 10.2075 5.18 9.7275 5.47 9.4375C5.76 9.1475 6.24 9.1475 6.53 9.4375L7.61 10.5175L11.38 6.7475C11.67 6.4575 12.15 6.4575 12.44 6.7475C12.73 7.0375 12.73 7.5275 12.43 7.8175Z" fill="#319626"/>
</svg>
